<?xml version="1.0" encoding="UTF-8"?>
<svg width="600px" height="505px" viewBox="0 0 600 505" version="1.1" xmlns="http://www.w3.org/2000/svg" xmlns:xlink="http://www.w3.org/1999/xlink">
    <title>办公</title>
    <defs>
        <polygon id="path-1" points="0.0929256709 0.175809197 84.9835544 0.175809197 84.9835544 138.234403 0.0929256709 138.234403"></polygon>
        <polygon id="path-3" points="0.117306322 0.0699344554 87.6160474 0.0699344554 87.6160474 198.387181 0.117306322 198.387181"></polygon>
        <polygon id="path-5" points="0.100807759 0.185851342 80.7196351 0.185851342 80.7196351 56.4233473 0.100807759 56.4233473"></polygon>
        <polygon id="path-7" points="0.0964542524 0.344456312 178.096454 0.344456312 178.096454 231.344456 0.0964542524 231.344456"></polygon>
        <path d="M0.519388125,6.35047397 C2.26755231,-0.440567243 2.24390604,0.560872799 1.53493296,0.185436495 L1.53493296,0.185436495 C-0.213646074,6.97606287 -0.189999809,5.97462282 0.519388125,6.35047397" id="path-9"></path>
        <linearGradient x1="49.9987924%" y1="10003.4101%" x2="49.9987924%" y2="-612.203295%" id="linearGradient-11">
            <stop stop-color="#F7B33D" offset="0%"></stop>
            <stop stop-color="#E62452" offset="100%"></stop>
        </linearGradient>
        <path d="M0.501964562,6.21233001 C2.06012894,-0.346811879 2.01159187,0.653383624 1.33497683,0.323165614 L1.33497683,0.323165614 C-0.223187549,6.8823075 -0.174235633,5.882112 0.501964562,6.21233001" id="path-12"></path>
        <linearGradient x1="49.9916701%" y1="10469.5689%" x2="49.9916701%" y2="-643.213265%" id="linearGradient-14">
            <stop stop-color="#F7B33D" offset="0%"></stop>
            <stop stop-color="#E62452" offset="100%"></stop>
        </linearGradient>
    </defs>
    <g id="办公" stroke="none" stroke-width="1" fill="none" fill-rule="evenodd">
        <path d="M565.133505,381.148585 C565.133505,373.357348 561.03399,366.524822 554.87476,362.68749 C551.475506,360.569697 549.685442,356.55564 550.519699,352.638242 C550.752843,351.543877 550.875638,350.408026 550.875638,349.243966 C550.875638,341.487992 545.440315,335.001863 538.170956,333.38645 C536.244823,332.958328 534.951745,331.167019 535.135107,329.20272 C535.216832,328.327393 535.245872,327.489403 535.157094,326.805321 C534.57382,322.314605 532.04118,319.86369 528.392603,317.862055 C526.514592,316.83199 525.593217,314.66649 526.12754,312.592671 C526.390138,311.570489 526.537824,310.49811 526.567278,309.392129 C526.787976,301.114277 522.327544,297.702992 519.229468,296.168059 C517.715693,295.418431 516.61303,294.036576 516.169974,292.406229 C514.966918,287.980644 510.781529,284.783005 505.905421,285.106585 C501.135928,285.422699 497.221019,289.174987 496.708268,293.927057 C496.704535,293.964393 496.700386,294.001729 496.696653,294.039065 C496.538596,295.668583 495.140148,296.863342 493.505237,296.784936 C492.971329,296.759216 492.42788,296.767927 491.878208,296.813146 C485.826838,297.310132 480.975206,302.218184 480.552477,308.275361 C480.485272,309.23905 480.529245,310.180752 480.671953,311.089682 C481.001341,313.185487 480.075818,315.273411 478.28202,316.405943 C474.878618,318.554019 472.236459,321.796461 470.849211,325.639601 C470.311985,327.126827 469.068689,328.257284 467.545372,328.680428 C460.740226,330.571714 455.745886,336.811424 455.745886,344.218513 C455.745886,346.213096 456.108462,348.122221 456.770972,349.88449 C457.796058,352.610448 456.47809,355.619746 453.789883,356.739832 C446.566157,359.749545 441.488018,366.874123 441.488018,375.188482 C441.488018,378.555378 442.321445,381.726881 443.792907,384.508844 C446.020634,388.722027 445.189696,393.922961 441.653542,397.11811 C436.657957,401.631643 433.517982,408.160501 433.517982,415.423638 L433.517982,424.413367 L567.207739,424.413367 L567.207739,415.423638 C567.207739,411.783358 564.909073,408.32727 562.189338,405.216749 C559.23397,401.836577 559.029035,396.901146 561.513967,393.161717 C563.801018,389.720563 565.133505,385.590349 565.133505,381.148585" id="Fill-7" fill="#63BEA7"></path>
        <path d="M538.975925,384.064252 C538.975925,376.645548 535.072632,370.139092 529.207528,366.485122 C525.970479,364.468552 524.265874,360.646154 525.060305,356.916267 C525.282248,355.873757 525.399235,354.792666 525.399235,353.683781 C525.399235,346.298679 520.223607,340.122026 513.301474,338.583774 C511.467437,338.17598 510.236172,336.470545 510.410822,334.600001 C510.488399,333.766574 510.515778,332.968823 510.431565,332.317514 C509.876085,328.040859 507.464996,325.707346 503.990239,323.801125 C502.20225,322.820427 501.324849,320.758224 501.833451,318.783554 C502.083604,317.809908 502.224237,316.788971 502.252446,315.73609 C502.462359,307.853587 498.215158,304.604922 495.264768,303.143417 C493.823175,302.429465 492.773613,301.113571 492.351299,299.56163 C491.206322,295.347202 487.220474,292.302641 482.57751,292.610458 C478.036182,292.911636 474.307955,296.484711 473.81968,301.00986 C473.815946,301.045122 473.812213,301.080799 473.808894,301.116061 C473.658719,302.668002 472.326647,303.805512 470.769312,303.73084 C470.26071,303.706364 469.743811,303.714661 469.220689,303.757805 C463.458053,304.231145 458.837905,308.904808 458.435503,314.672422 C458.371617,315.590063 458.413516,316.486962 458.549586,317.352332 C458.863625,319.34816 457.982076,321.336106 456.273737,322.414707 C453.033369,324.460317 450.516909,327.548021 449.195622,331.207384 C448.684531,332.623256 447.500143,333.699783 446.049839,334.102599 C439.569933,335.903864 434.81413,341.844884 434.81413,348.898523 C434.81413,350.797692 435.159697,352.61555 435.790679,354.293605 C436.766398,356.889302 435.511487,359.755063 432.951468,360.821634 C426.073309,363.687395 421.237855,370.471799 421.237855,378.388734 C421.237855,381.59467 422.031457,384.614754 423.432394,387.263965 C425.553921,391.275948 424.762808,396.228803 421.394667,399.270875 C416.638034,403.568687 413.648649,409.785995 413.648649,416.701905 L413.648649,425.262268 L540.951425,425.262268 L540.951425,416.701905 C540.951425,413.235446 538.762279,409.944467 536.172805,406.982461 C533.358485,403.76408 533.163092,399.064281 535.529378,395.503651 C537.706908,392.226777 538.975925,388.293615 538.975925,384.064252" id="Fill-9" fill="#41B093"></path>
        <path d="M159.582577,376.739635 C159.582577,368.260998 155.483061,360.824455 149.323832,356.648607 C145.924578,354.343719 144.134929,349.975383 144.968771,345.712418 C145.201914,344.520978 145.324709,343.285149 145.324709,342.018207 C145.324709,333.577735 139.889387,326.518288 132.620028,324.760583 C130.694309,324.29471 129.400817,322.34493 129.584179,320.20764 C129.665904,319.254737 129.694943,318.342904 129.606166,317.598668 C129.022891,312.710944 126.490667,310.043894 122.841675,307.865534 C120.963664,306.744618 120.042289,304.387874 120.576612,302.130693 C120.839625,301.018489 120.986895,299.85111 121.016349,298.648054 C121.237048,289.639242 116.776616,285.926779 113.67854,284.256191 C112.164764,283.440187 111.062102,281.936368 110.619045,280.162068 C109.416405,275.345698 105.230601,271.865963 100.354492,272.218168 C95.5849992,272.562076 91.6700905,276.645827 91.1577548,281.817722 C91.1536063,281.857962 91.1494578,281.898617 91.1457242,281.938857 C90.9880825,283.712742 89.5896341,285.012871 87.9543082,284.927413 C87.4204004,284.899618 86.8773661,284.90916 86.3272793,284.958112 C80.2759098,285.499487 75.4242771,290.840639 75.0015483,297.432553 C74.9343431,298.481286 74.9783169,299.506372 75.1210241,300.495367 C75.4508273,302.776194 74.5248894,305.04831 72.731092,306.28082 C69.3281042,308.618481 66.6855304,312.147582 65.2982829,316.329652 C64.7610564,317.948384 63.5177607,319.178405 61.9944434,319.6393 C55.1892974,321.697354 50.1949575,328.487566 50.1949575,336.549283 C50.1949575,338.719761 50.5575335,340.796898 51.2200438,342.71515 C52.2451301,345.681719 50.927162,348.956519 48.2389551,350.175754 C41.0152287,353.450969 35.9370897,361.204869 35.9370897,370.253092 C35.9370897,373.917433 36.7705168,377.368958 38.2419782,380.396509 C40.4701201,384.98181 39.639182,390.641979 36.1026135,394.119225 C31.107029,399.03101 27.967054,406.136505 27.967054,414.040995 L27.967054,423.824326 L161.656811,423.824326 L161.656811,414.040995 C161.656811,410.079209 159.358145,406.317793 156.63841,402.932644 C153.683456,399.254198 153.478107,393.883177 155.963039,389.81353 C158.250089,386.068294 159.582577,381.57343 159.582577,376.739635" id="Fill-11" fill="#63BEA7"></path>
        <path d="M171.971228,380.957548 C171.971228,373.375809 168.306057,366.72623 162.798552,362.992195 C159.75897,360.931236 158.158076,357.025039 158.903971,353.213013 C159.112639,352.147686 159.222158,351.042949 159.222158,349.909588 C159.222158,342.361866 154.361814,336.049973 147.86158,334.477704 C146.139551,334.061198 144.982958,332.318012 145.147238,330.406813 C145.220251,329.554718 145.245971,328.739129 145.166735,328.073715 C144.645273,323.703304 142.38104,321.31835 139.117855,319.37023 C137.43897,318.36796 136.61467,316.260539 137.092158,314.242309 C137.327377,313.247922 137.459298,312.204167 137.485848,311.128055 C137.683315,303.072561 133.694564,299.752542 130.924217,298.259094 C129.570572,297.529379 128.584481,296.184445 128.188303,294.598486 C127.11302,290.291133 123.370273,287.179782 119.009819,287.494651 C114.745609,287.802467 111.244302,291.453948 110.785897,296.078245 C110.782163,296.114751 110.778844,296.150843 110.775525,296.186934 C110.634478,297.772894 109.384129,298.935709 107.92138,298.859377 C107.443891,298.834486 106.958521,298.842783 106.466927,298.886757 C101.055666,299.370883 96.717199,304.147014 96.3396884,310.041156 C96.2795357,310.979125 96.3185313,311.895521 96.446304,312.779975 C96.7408452,314.819776 95.913226,316.851281 94.3090136,317.953114 C91.2661127,320.043941 88.9031457,323.199265 87.6623391,326.939524 C87.1823614,328.386509 86.0705721,329.486268 84.7078005,329.898626 C78.6232433,331.738886 74.1574181,337.810998 74.1574181,345.019375 C74.1574181,346.960028 74.4818283,348.817711 75.0742294,350.533103 C75.9906259,353.185633 74.8120463,356.114036 72.4080094,357.204253 C65.9492604,360.133071 61.4079331,367.066405 61.4079331,375.157576 C61.4079331,378.434035 62.1534127,381.52008 63.4688917,384.227785 C65.4614007,388.327715 64.7184101,393.38926 61.5560334,396.498122 C57.0885488,400.890519 54.2816957,407.244312 54.2816957,414.312471 L54.2816957,423.060759 L173.826423,423.060759 L173.826423,414.312471 C173.826423,410.76968 171.771272,407.406102 169.339026,404.37938 C166.696452,401.090061 166.51309,396.28738 168.735009,392.648344 C170.779788,389.299286 171.971228,385.279836 171.971228,380.957548" id="Fill-13" fill="#41B093"></path>
        <path d="M587.080074,428.682762 L12.6787069,428.682762 C11.1989486,428.682762 10.0000415,427.48344 10.0000415,426.004097 C10.0000415,424.524753 11.1989486,423.325431 12.6787069,423.325431 L587.080074,423.325431 C588.559417,423.325431 589.758739,424.524753 589.758739,426.004097 C589.758739,427.48344 588.559417,428.682762 587.080074,428.682762" id="Fill-15" fill="#9FD4E0"></path>
        <path d="M487.653381,439.8891 L121.984643,439.8891 C107.38909,439.8891 95.5576608,428.057256 95.5576608,413.461703 L95.5576608,201.255148 C95.5576608,186.66001 107.38909,174.828165 121.984643,174.828165 L487.653381,174.828165 C502.248934,174.828165 514.080363,186.66001 514.080363,201.255148 L514.080363,413.461703 C514.080363,428.057256 502.248934,439.8891 487.653381,439.8891" id="Fill-21" fill="#0C252E"></path>
        <path d="M490.755439,437.059721 L120.992993,437.059721 C108.038989,437.059721 97.5383881,426.558705 97.5383881,413.605116 L97.5383881,198.311271 C97.5383881,185.357266 108.038989,174.856665 120.992993,174.856665 L490.755439,174.856665 C503.709028,174.856665 514.210044,185.357266 514.210044,198.311271 L514.210044,413.605116 C514.210044,426.558705 503.709028,437.059721 490.755439,437.059721" id="Fill-23" fill="#184657"></path>
        <polygon id="Fill-25" fill="#FFFFFF" points="124.590627 431.194286 487.157141 431.194286 487.157141 180.721852 124.590627 180.721852"></polygon>
        <path d="M507.602075,140.186637 C509.5643,140.186637 511.154822,138.596115 511.154822,136.633889 C511.154822,134.672079 509.5643,133.081557 507.602075,133.081557 C507.501682,133.081557 507.402948,133.088194 507.3038,133.096491 C506.577403,131.01562 504.598999,129.522587 502.270049,129.522587 C499.936122,129.522587 497.953569,131.022672 497.231321,133.111011 C497.087369,133.093172 496.941758,133.081557 496.792828,133.081557 C496.230296,133.081557 495.699707,133.215967 495.226781,133.448696 C494.455167,132.011252 492.938487,131.033873 491.192812,131.033873 C488.665565,131.033873 486.616222,133.082386 486.616222,135.610048 C486.616222,138.137709 488.665565,140.186637 491.192812,140.186637 L507.602075,140.186637 Z" id="Fill-28" fill="#9FD4E0"></path>
        <path d="M172.037272,250.775487 C173.999082,250.775487 175.590019,249.184964 175.590019,247.223154 C175.590019,245.260929 173.999082,243.670406 172.037272,243.670406 C171.936879,243.670406 171.838145,243.677044 171.738997,243.685341 C171.0126,241.604884 169.034196,240.111436 166.705247,240.111436 C164.371319,240.111436 162.388766,241.611937 161.666518,243.699861 C161.522151,243.682022 161.376955,243.670406 161.228025,243.670406 C160.665078,243.670406 160.134904,243.804817 159.661979,244.037546 C158.890364,242.600102 157.373684,241.622723 155.628009,241.622723 C153.100762,241.622723 151.05142,243.671236 151.05142,246.198897 C151.05142,248.726559 153.100762,250.775487 155.628009,250.775487 L172.037272,250.775487 Z" id="Fill-29" fill="#9FD4E0"></path>
        <path d="M137.664979,130.882164 C135.583693,130.882164 133.896926,129.194982 133.896926,127.113696 C133.896926,125.03241 135.583693,123.345228 137.664979,123.345228 C137.772009,123.345228 137.876966,123.352695 137.981507,123.361407 C138.752292,121.154008 140.851417,119.570123 143.320999,119.570123 C145.79722,119.570123 147.899663,121.161475 148.6663,123.376756 C148.818963,123.358088 148.973286,123.345228 149.131343,123.345228 C149.728307,123.345228 150.29084,123.487935 150.792804,123.734769 C151.610882,122.210207 153.219658,121.173091 155.071119,121.173091 C157.752273,121.173091 159.925655,123.346473 159.925655,126.027627 C159.925655,128.708782 157.752273,130.882164 155.071119,130.882164 L137.664979,130.882164 Z" id="Fill-30" fill="#9FD4E0"></path>
        <path d="M300.432754,97.4920619 C304.19417,97.4920619 307.243708,94.4429383 307.243708,90.6815229 C307.243708,86.9201074 304.19417,83.8709839 300.432754,83.8709839 C299.615091,83.8709839 298.83435,84.0224029 298.107953,84.2862455 C296.923981,79.7673199 292.813264,76.4327817 287.922636,76.4327817 C283.190894,76.4327817 279.188867,79.5532589 277.861358,83.8485821 C276.762014,83.1922946 275.481382,82.8081465 274.108239,82.8081465 C270.053942,82.8081465 266.766696,86.0953921 266.766696,90.1501042 C266.766696,94.2052311 270.053942,97.4920619 274.108239,97.4920619 L300.432754,97.4920619 Z" id="Fill-31" fill="#9FD4E0"></path>
        <path d="M80.6040951,174.981908 C84.375052,174.981908 87.4316428,171.924902 87.4316428,168.15436 C87.4316428,164.383403 84.375052,161.326397 80.6040951,161.326397 C79.783943,161.326397 79.0019569,161.478231 78.273486,161.743318 C77.0866095,157.212777 72.9651071,153.869527 68.0624483,153.869527 C63.3190906,153.869527 59.3071077,156.998301 57.9758645,161.303996 C56.8740315,160.646464 55.5904957,160.261486 54.2136194,160.261486 C50.148951,160.261486 46.8538233,163.556613 46.8538233,167.621697 C46.8538233,171.68678 50.148951,174.981908 54.2136194,174.981908 L80.6040951,174.981908 Z" id="Fill-32" fill="#9FD4E0"></path>
        <g id="编组" transform="translate(124.497702, 180.655544)">
            <g transform="translate(0.000000, 112.423468)">
                <mask id="mask-2" fill="white">
                    <use xlink:href="#path-1"></use>
                </mask>
                <g id="Clip-34"></g>
                <path d="M82.9089059,96.2403379 C82.9089059,88.4491012 78.8098052,81.6161604 72.6505755,77.7792429 C69.2513213,75.6614502 67.4612576,71.6473931 68.2950996,67.7299953 C68.5286583,66.6356296 68.6510381,65.4997792 68.6510381,64.3357193 C68.6510381,56.5797445 63.215716,50.0936157 55.9467713,48.4777876 C54.0206379,48.0496657 52.7271458,46.2587723 52.910508,44.294473 C52.9926477,43.4191464 53.0212721,42.5811559 52.9324949,41.8970737 C52.3492204,37.4063576 49.8169958,34.9554431 46.1680039,32.9538075 C44.2904075,31.9237431 43.368618,29.7582431 43.9029406,27.6844242 C44.1659535,26.6622418 44.3136389,25.5894481 44.3426782,24.4838815 C44.5633767,16.2060296 40.1029445,12.7947448 37.004869,11.2598118 C35.4910932,10.5097689 34.3884305,9.12832926 33.9457891,7.49798156 C32.7427335,3.07239648 28.5569298,-0.125242232 23.6808212,0.198338229 C18.911743,0.514451449 14.9968343,4.26674026 14.4840837,9.01880972 C14.4799352,9.05614593 14.4762016,9.09348214 14.472468,9.13081834 C14.3144114,10.7603364 12.915963,11.955095 11.2806371,11.876689 C10.7467294,11.8509685 10.203695,11.8596802 9.65360821,11.9048985 C3.60223874,12.4018849 -1.24939394,17.3099368 -1.67212278,23.3671141 C-1.7389131,24.3308031 -1.69493935,25.2725052 -1.55264691,26.1814344 C-1.22284375,28.2772402 -2.14836684,30.3651638 -3.94257901,31.4976955 C-7.34556686,33.6457719 -9.98814063,36.8882141 -11.3753881,40.7313543 C-11.9121998,42.2185799 -13.1559104,43.3486224 -14.6792276,43.7721809 C-21.4843736,45.6634673 -26.4787136,51.9031772 -26.4787136,59.3102658 C-26.4787136,61.3044341 -26.1161375,63.2135588 -25.4532124,64.9762426 C-24.428541,67.7022006 -25.7465091,70.711084 -28.4343012,71.8315851 C-35.6580275,74.8412982 -40.7361665,81.9658762 -40.7361665,90.2798199 C-40.7361665,93.6471309 -39.9027394,96.8182194 -38.4316929,99.6005965 C-36.203551,103.81378 -37.034489,109.014714 -40.5706427,112.209863 C-45.566642,116.722981 -48.7062022,123.252254 -48.7062022,130.515391 L-48.7062022,139.50512 L84.9835544,139.50512 L84.9835544,130.515391 C84.9835544,126.875111 82.6848886,123.418608 79.9651534,120.308501 C77.0097851,116.92833 76.8048508,111.992898 79.289368,108.25347 C81.5764181,104.812316 82.9089059,100.682102 82.9089059,96.2403379" id="Fill-33" fill="#9AD5C6" mask="url(#mask-2)"></path>
            </g>
            <g transform="translate(275.043392, 52.270690)">
                <mask id="mask-4" fill="white">
                    <use xlink:href="#path-3"></use>
                </mask>
                <g id="Clip-36"></g>
                <path d="M141.278299,102.232924 C141.278299,93.9471895 136.918675,86.6803191 130.36866,82.5998865 C126.75327,80.3476835 124.849538,76.0789105 125.736896,71.9130195 C125.984974,70.7485447 126.115236,69.5409258 126.115236,68.3026083 C126.115236,60.0546253 120.335176,53.1565536 112.604092,51.4382584 C110.555994,50.9831715 109.180362,49.0781953 109.375755,46.9890271 C109.462458,46.0585258 109.493156,45.1670202 109.398571,44.4397938 C108.778376,39.6636632 106.085605,37.057596 102.204714,34.9286025 C100.208057,33.8334071 99.2281886,31.530178 99.7956989,29.3244378 C100.07572,28.2375393 100.232533,27.0971256 100.263646,25.9210351 C100.498449,17.1175723 95.7550916,13.4901524 92.459964,11.8573156 C90.8499437,11.0599802 89.677172,9.59059299 89.2063209,7.85694844 C87.9273484,3.15009727 83.4760428,-0.250401495 78.2904585,0.0939213031 C73.2181274,0.430362013 69.0543106,4.42035801 68.509202,9.4744359 C68.5046387,9.51426119 68.5004902,9.55367163 68.4971714,9.59308207 C68.3287436,11.3263118 66.8415181,12.5969874 65.1024805,12.5136032 C64.5349702,12.4862233 63.9570886,12.4953499 63.3725696,12.5434721 C56.9366372,13.0724017 51.7771882,18.2920035 51.3279092,24.7333289 C51.2565555,25.7584152 51.3030184,26.7598552 51.4552671,27.7264481 C51.8053978,29.9554197 50.8205516,32.1756795 48.9130863,33.3799796 C45.2939633,35.6645406 42.4837914,39.1131616 41.0081815,43.2002317 C40.4369376,44.7816275 39.1144061,45.9838534 37.4944296,46.4339621 C30.257843,48.4451391 24.9461453,55.0806128 24.9461453,62.9585525 C24.9461453,65.0792491 25.3319527,67.1095091 26.0367774,68.9837866 C27.1265798,71.8827357 25.7248126,75.0832783 22.8661037,76.2743033 C15.1839717,79.4752608 9.78349673,87.0524366 9.78349673,95.8944802 C9.78349673,99.4750224 10.6696094,102.847726 12.2344113,105.806413 C14.6040159,110.287173 13.7203923,115.81874 9.9589769,119.216334 C4.64644948,124.016111 -6.6357226,138.206774 5.62424326,152.730144 C18.1484665,167.566723 12.2256995,200.071624 12.2256995,200.071624 L139.161751,200.071624 L143.484039,138.683848 C143.484039,134.812498 141.039762,131.136541 138.147451,127.828968 C135.004572,124.234321 134.786777,118.985265 137.429351,115.008544 C139.861183,111.348766 141.278299,106.956369 141.278299,102.232924" id="Fill-35" fill="#9AD5C6" mask="url(#mask-4)"></path>
            </g>
            <g transform="translate(73.013027, 0.000000)">
                <g>
                    <mask id="mask-6" fill="white">
                        <use xlink:href="#path-5"></use>
                    </mask>
                    <g id="Clip-38"></g>
                </g>
            </g>
        </g>
        <g id="编组" transform="translate(213.903546, 180.655544)">
            <mask id="mask-8" fill="white">
                <use xlink:href="#path-7"></use>
            </mask>
            <g id="Clip-1579"></g>
            <polygon id="Fill-1578" fill="#FCC14A" mask="url(#mask-8)" points="1.09645425 84.3444563 128.096454 84.3444563 128.096454 78.3444563 1.09645425 78.3444563"></polygon>
            <polygon id="Fill-1580" fill="#7CABBD" mask="url(#mask-8)" points="1.09645425 101.344456 178.096454 101.344456 178.096454 98.3444563 1.09645425 98.3444563"></polygon>
            <polygon id="Fill-1581" fill="#7CABBD" mask="url(#mask-8)" points="1.09645425 111.344456 178.096454 111.344456 178.096454 108.344456 1.09645425 108.344456"></polygon>
            <polygon id="Fill-1582" fill="#7CABBD" mask="url(#mask-8)" points="1.09645425 121.344456 178.096454 121.344456 178.096454 118.344456 1.09645425 118.344456"></polygon>
            <polygon id="Fill-1583" fill="#7CABBD" mask="url(#mask-8)" points="1.09645425 131.344456 107.096454 131.344456 107.096454 128.344456 1.09645425 128.344456"></polygon>
            <polygon id="Fill-1584" fill="#035E80" mask="url(#mask-8)" points="0.0964542524 -10.6555437 127.096454 -10.6555437 127.096454 -16.6555437 0.0964542524 -16.6555437"></polygon>
            <polygon id="Fill-1585" fill="#7CABBD" mask="url(#mask-8)" points="1.09645425 6.34445631 177.096454 6.34445631 177.096454 3.34445631 1.09645425 3.34445631"></polygon>
            <polygon id="Fill-1586" fill="#7CABBD" mask="url(#mask-8)" points="1.09645425 16.3444563 177.096454 16.3444563 177.096454 13.3444563 1.09645425 13.3444563"></polygon>
            <polygon id="Fill-1587" fill="#7CABBD" mask="url(#mask-8)" points="1.09645425 26.3444563 177.096454 26.3444563 177.096454 23.3444563 1.09645425 23.3444563"></polygon>
            <polygon id="Fill-1588" fill="#7CABBD" mask="url(#mask-8)" points="1.09645425 36.3444563 62.0964543 36.3444563 62.0964543 33.3444563 1.09645425 33.3444563"></polygon>
            <polygon id="Fill-1589" fill="#E85F5B" mask="url(#mask-8)" points="0.0964542524 185.344456 128.096454 185.344456 128.096454 179.344456 0.0964542524 179.344456"></polygon>
            <polygon id="Fill-1590" fill="#7CABBD" mask="url(#mask-8)" points="0.0964542524 201.344456 178.096454 201.344456 178.096454 198.344456 0.0964542524 198.344456"></polygon>
            <polygon id="Fill-1591" fill="#7CABBD" mask="url(#mask-8)" points="0.0964542524 211.344456 178.096454 211.344456 178.096454 208.344456 0.0964542524 208.344456"></polygon>
            <polygon id="Fill-1592" fill="#7CABBD" mask="url(#mask-8)" points="0.0964542524 221.344456 178.096454 221.344456 178.096454 218.344456 0.0964542524 218.344456"></polygon>
            <polygon id="Fill-1593" fill="#7CABBD" mask="url(#mask-8)" points="0.0964542524 231.344456 144.096454 231.344456 144.096454 228.344456 0.0964542524 228.344456"></polygon>
        </g>
        <g id="编组-2" transform="translate(359.106477, 48.416978)">
            <path d="M46.5770445,52.2298116 C45.7021328,48.9819764 46.164272,30.8307719 46.164272,30.8307719 L31.9292208,31.3559679 C31.9292208,31.3559679 31.7616227,49.2740285 31.3861864,52.1410344 C31.0107501,55.0080402 26.1138992,56.1542618 20.3595599,59.0830798 C19.5705214,59.4842366 18.6873127,60.4114191 17.9061563,61.0843005 C18.8341685,63.1676609 37.9984287,70.1569988 39.3616151,71.9557743 C40.8604564,73.9321042 55.1029749,63.408272 56.7615321,58.847032 C50.0654908,55.1690008 47.3984411,55.27935 46.5770445,52.2298116" id="Fill-1596" fill="#FFD6CB"></path>
            <path d="M45.4382073,30.5121282 L32.2875654,30.9974988 C32.2875654,30.9974988 32.2377838,35.2040448 32.1311682,40.2983629 C33.1421497,42.6833168 35.1678464,46.4978326 38.6965328,46.4405838 C42.7479261,46.3754528 44.0219205,42.8467664 45.2959148,40.7559388 C45.2556747,35.3890665 45.4382073,30.5121282 45.4382073,30.5121282" id="Fill-1599" fill="#F4B6A5"></path>
            <path d="M35.5414574,30.9356867 C35.3626584,33.4828457 33.1527698,35.4027564 30.6060256,35.2239575 C28.0588666,35.0451585 26.1389559,32.8356848 26.3177548,30.2885258 C26.4961389,27.7417816 28.7056127,25.8218709 31.2527717,26.0006698 C33.7999307,26.1790539 35.7198415,28.3885277 35.5414574,30.9356867" id="Fill-1600" fill="#FFCCBE"></path>
            <path d="M33.3598613,30.7827742 C33.2652763,32.1248034 32.1012163,33.1366146 30.7587722,33.0424444 C29.416743,32.9482742 28.4053466,31.7842142 28.499102,30.4417701 C28.5932722,29.0993261 29.7573322,28.0875149 31.1001911,28.1816851 C32.4422203,28.2762701 33.4540315,29.4403301 33.3598613,30.7827742" id="Fill-1601" fill="#ED6D53"></path>
            <path d="M28.0981111,29.4227406 C25.9857115,27.5733538 25.4982666,20.9092557 29.3646382,18.2305903 C30.7734578,17.2544559 32.6912943,16.9234082 33.0878878,15.5183222 C33.8528652,12.8102027 37.9747824,10.8056632 41.0151942,12.324832 C44.9305178,14.2808344 46.8296862,12.7753556 49.0810595,10.4891352 C51.499616,8.03241273 53.0121473,5.43505726 59.6816384,6.60368054 C66.3507147,7.77230382 68.3158437,6.98533955 69.568266,3.8113471 C70.8206883,0.636939807 76.9293067,-1.94714057 82.5890608,2.00303014 C88.2492298,5.95320085 90.0554725,9.05418027 93.8720626,7.6345747 C97.6882378,6.2145543 101.55295,4.02042986 104.933951,7.57110315 C108.314122,11.1221913 105.537553,18.0318787 101.113627,17.9526429 C96.6897017,17.8738221 98.90042,23.1340788 100.086052,26.3001892 C101.271684,29.4662995 97.9902462,34.2864038 92.4126317,32.3519735 C86.8346024,30.4175431 85.5954552,32.0275633 83.7817452,34.9294163 C81.9676204,37.8312693 77.2064243,37.6931253 74.8957279,35.9827122 C72.5846167,34.2727139 69.7777636,32.910772 66.463553,34.9406172 C63.1493423,36.9704623 62.0537321,38.2577317 58.164129,36.6190871 C54.2745259,34.9804424 53.5037407,35.5703545 51.2959263,36.7497638 C49.0881119,37.9291731 44.653815,36.2531923 44.653815,36.2531923 L28.0981111,29.4227406 Z" id="Fill-1602" fill="#5B1902"></path>
            <path d="M39.177838,31.4878892 L38.8928383,28.0795083 L51.8684148,28.9083721 C57.067689,25.8799909 58.3001987,25.9111044 62.4055221,26.9785051 C66.5116752,28.0459057 65.9690556,23.1938582 70.2834618,21.7456282 C74.5982828,20.2969834 75.4304654,24.155473 79.3955706,24.0380713 C83.3610906,23.9206697 82.1912228,20.0032719 87.2423967,20.3081843 C92.0127195,20.5960879 92.5872822,24.1811935 99.2692187,24.0812154 C99.5388691,24.8677648 99.8354845,25.630668 100.086052,26.3002306 C101.271684,29.466341 97.9902462,34.2864453 92.4126317,32.352015 C86.8346024,30.4175846 85.5954552,32.0276048 83.7813303,34.9294578 C81.9676204,37.8313108 77.2064243,37.6931668 74.8957279,35.9827537 C72.5846167,34.2727554 69.7777636,32.9108135 66.463553,34.9406586 C63.1493423,36.9705038 62.0537321,38.2577732 58.164129,36.6191286 C54.2745259,34.9804839 53.6559894,35.3650469 51.4477602,36.5444562 C49.2399458,37.7238655 44.927199,36.6784517 44.927199,36.6784517 L39.177838,31.4878892 Z" id="Fill-1603" fill="#380E00"></path>
            <path d="M42.6039743,30.9356867 C42.7827732,33.4828457 44.992247,35.4027564 47.5389912,35.2239575 C50.0861502,35.0451585 52.0064758,32.8356848 51.8276768,30.2885258 C51.6492927,27.7417816 49.439819,25.8218709 46.89266,26.0006698 C44.3455009,26.1790539 42.4251754,28.3885277 42.6039743,30.9356867" id="Fill-1604" fill="#F4B6A5"></path>
            <path d="M44.7855704,30.7827742 C44.8797406,32.1248034 46.0442154,33.1366146 47.3866595,33.0424444 C48.7286887,32.9482742 49.740085,31.7842142 49.6463297,30.4417701 C49.5521595,29.0993261 48.3876847,28.0875149 47.0452406,28.1816851 C45.7032114,28.2762701 44.6914002,29.4403301 44.7855704,30.7827742" id="Fill-1605" fill="#ED6D53"></path>
            <path d="M30.3396526,32.5851588 C30.795984,39.0849776 33.0531651,43.7789686 39.6496432,43.6777459 C43.7827613,43.6138595 47.2803342,39.0493008 47.2405089,32.533303 C47.1990243,25.7020216 45.7781742,20.2227258 38.0524832,20.2164982 C30.5649143,20.2102804 29.883736,26.08534 30.3396526,32.5851588" id="Fill-1606" fill="#FFD6CB"></path>
            <path d="M38.8792728,32.4966305 L37.2962176,35.6005139 C37.1087069,35.9680681 37.3721346,36.404072 37.7840774,36.409465 L39.6629183,36.4335261 L38.8792728,32.4966305 Z" id="Fill-1609" fill="#F4B6A5"></path>
            <path d="M51.6970001,31.7655876 C47.9501043,33.2843415 46.1534031,31.9510241 44.4139506,30.9499989 C42.6753279,29.9493885 42.8976858,25.2022972 40.3397408,24.4062063 C37.7817957,23.6101154 37.1512287,25.6374715 34.402869,24.932232 C31.1973482,24.1095909 30.5550363,26.0373837 30.5550363,26.0373837 C30.5550363,26.0373837 30.4630695,23.6457923 35.1977154,21.951973 C39.9323613,20.2577389 45.3344956,20.2345075 48.1280736,23.1604216 C49.04447,24.1199621 49.0137714,25.5769039 50.0396874,26.5086496 C52.5918245,28.8268133 51.6970001,31.7655876 51.6970001,31.7655876" id="Fill-1610" fill="#380E00"></path>
            <path d="M45.5492203,30.2769515 C45.3256179,30.243349 45.1123866,30.1906634 44.8987406,30.1466897 C44.6821906,30.1147465 44.4714484,30.06455 44.2590469,30.037585 C43.8342438,29.9782619 43.4135892,29.9396811 42.994594,29.9421702 C42.5760136,29.9463187 42.1611669,29.9878034 41.752128,30.0703579 C41.3472376,30.1545717 40.9315611,30.2852485 40.561103,30.456995 L40.5374567,30.467781 C40.4515834,30.5080212 40.3491163,30.470685 40.309291,30.3843968 C40.2790072,30.3188511 40.2935268,30.2441786 40.3399897,30.194397 C40.6884609,29.8239389 41.1149234,29.5966029 41.57084,29.4331533 C42.0267565,29.2709482 42.5104678,29.2020836 42.9904455,29.1933718 C43.4700084,29.19835 43.9462524,29.2626512 44.3992651,29.3949874 C44.6278456,29.4530659 44.8439808,29.55014 45.0621902,29.63145 C45.2733472,29.7322578 45.4799408,29.8401179 45.6786524,29.9591789 C45.7612069,30.0085457 45.7877571,30.1147465 45.7388052,30.1968861 C45.7018839,30.2586983 45.6317748,30.2893969 45.5645696,30.2790258 L45.5492203,30.2769515 Z" id="Fill-1611" fill="#333333"></path>
            <path d="M41.8168026,32.4933947 C42.0988984,32.5473248 42.3693785,32.603744 42.6398585,32.641495 C42.9103386,32.6788312 43.1774999,32.6987439 43.4438315,32.6950102 C43.7093335,32.6887875 43.9723463,32.6580889 44.2316255,32.6016697 C44.4871711,32.5423466 44.7539176,32.4597921 44.9874763,32.3452944 L45.0036553,32.3374124 C45.0600745,32.3092028 45.1285242,32.332849 45.1567337,32.3892682 C45.1783058,32.4328271 45.1687643,32.4838533 45.1376508,32.5178707 C44.7008172,32.9874772 44.065272,33.1754028 43.4525433,33.1940709 C43.144727,33.1932412 42.8385701,33.155905 42.5481774,33.0704465 C42.4009068,33.03394 42.2627629,32.9704685 42.1229595,32.9177829 C41.9893788,32.8489184 41.856213,32.7829578 41.7292699,32.7049666 C41.674925,32.671364 41.6579163,32.6000103 41.6915189,32.5452506 C41.7180691,32.503351 41.7661913,32.4838533 41.8118244,32.492565 L41.8168026,32.4933947 Z" id="Fill-1612" fill="#1A1A1A"></path>
            <path d="M32.7627309,32.4933947 C33.0444118,32.5473248 33.3153068,32.603744 33.585372,32.641495 C33.8558521,32.6788312 34.1234282,32.6987439 34.3897598,32.6950102 C34.6552618,32.6887875 34.9182746,32.6580889 35.1775538,32.6016697 C35.4330994,32.5423466 35.6998459,32.4597921 35.9334046,32.3452944 L35.9491688,32.3374124 C36.0055879,32.3092028 36.0744525,32.332849 36.1022472,32.3892682 C36.1238192,32.4328271 36.1146926,32.4838533 36.0835791,32.5178707 C35.6467455,32.9874772 35.0112003,33.1754028 34.3984716,33.1940709 C34.0906553,33.1932412 33.7844984,33.155905 33.4936909,33.0704465 C33.3468351,33.03394 33.2086912,32.9704685 33.0688878,32.9177829 C32.9348923,32.8489184 32.8017265,32.7829578 32.6751982,32.7049666 C32.6208533,32.671364 32.6038446,32.6000103 32.6374472,32.5452506 C32.6635825,32.503351 32.7121196,32.4838533 32.7577527,32.492565 L32.7627309,32.4933947 Z" id="Fill-1613" fill="#1A1A1A"></path>
            <path d="M36.8342028,30.1501744 C36.6359061,30.1265281 36.4479805,30.0846286 36.2596401,30.0493666 C36.0696402,30.0236461 35.8842038,29.9842357 35.6983524,29.9597597 C35.32582,29.9116375 34.9586807,29.8705677 34.5927858,29.8689083 C34.2277207,29.8647598 33.8651446,29.8892358 33.5058874,29.9460698 C33.1516082,30.004978 32.7823946,30.1003928 32.4534212,30.2285804 L32.4260413,30.2393664 C32.3376789,30.2733839 32.2381157,30.2298249 32.2036834,30.1414626 C32.1787926,30.0771613 32.1949716,30.0066374 32.2397751,29.9601746 C32.5558883,29.6312011 32.9371325,29.4399567 33.3449268,29.303887 C33.7514766,29.1690618 34.1800133,29.1192802 34.603157,29.1200997 C35.0267155,29.1304811 35.4436365,29.1976862 35.8418894,29.3179918 C36.0422604,29.3727516 36.2318453,29.4590397 36.4230897,29.534127 C36.6076965,29.6258081 36.7889845,29.7224674 36.9623904,29.8315721 C37.0437004,29.8825982 37.0677615,29.9904584 37.0167354,30.0717683 C36.9802289,30.1306766 36.9134385,30.159301 36.8491373,30.1518338 L36.8342028,30.1501744 Z" id="Fill-1614" fill="#333333"></path>
            <path d="M36.6745698,38.2900898 C36.6650283,38.5987358 37.7403111,38.8808315 39.0325587,38.8563556 C40.3248063,38.8318796 41.337862,38.5779934 41.3544559,38.2017274 C41.3735389,37.7524484 40.3044788,38.2772295 39.0122312,38.3017055 C37.7199836,38.3261814 36.6895043,37.8246317 36.6745698,38.2900898" id="Fill-1615" fill="#ED6D53"></path>
            <path d="M51.7723363,28.9327651 C48.0258553,30.4519339 46.5564681,30.8904269 44.8174306,29.8898166 C43.078393,28.8887914 43.3011657,24.1421149 40.7432207,23.3456092 C38.1852757,22.5495182 37.6011715,24.8680967 34.7835324,24.5374638 C31.7709153,24.1835996 30.4122922,25.5086201 30.4122922,25.5086201 C30.4122922,25.5086201 29.4203936,21.031594 34.1546247,19.3377747 C38.8892706,17.6439555 45.7379755,19.1739103 48.5315535,22.0998244 C51.3259612,25.0261533 51.7723363,28.9327651 51.7723363,28.9327651" id="Fill-1618" fill="#5B1902"></path>
            <path d="M23.2507929,130.897158 C14.5983343,130.897158 12.3623103,121.760574 14.2278761,112.365954 C16.4145333,101.351773 27.4042385,96.098154 37.6285513,96.098154 C47.8532791,96.098154 58.5177444,102.399676 61.4171083,113.214731 C63.6705558,121.619111 60.6591832,130.897158 52.0063098,130.897158 L23.2507929,130.897158 Z" id="Fill-1619" fill="#035E80"></path>
            <path d="M50.5152262,130.331183 L22.6620009,130.331183 C20.7470683,130.331183 19.1801921,128.764307 19.1801921,126.849374 L19.1801921,118.252505 C19.1801921,116.337573 20.7470683,114.770696 22.6620009,114.770696 L50.5152262,114.770696 C52.4301588,114.770696 53.9970349,116.337573 53.9970349,118.252505 L53.9970349,126.849374 C53.9970349,128.764307 52.4301588,130.331183 50.5152262,130.331183" id="Fill-1620" fill="#003245"></path>
            <path d="M28.4226043,55.0747891 C28.4226043,55.0747891 19.7460846,58.2342619 16.6811968,61.4406124 C14.0942125,64.1466577 13.0504581,65.872835 13.0504581,65.872835 L21.9149034,94.6835266 L53.413387,94.6835266 L64.4474808,65.8259573 C64.4474808,65.8259573 62.0426142,61.4406124 56.6670301,58.5167725 C51.2951795,55.5950069 49.7826483,55.310422 49.1699197,54.9333263 C49.1699197,54.9333263 41.4836392,64.3167449 39.5035757,64.4109151 C37.5230973,64.5055001 28.4226043,55.0747891 28.4226043,55.0747891" id="Fill-1621" fill="#E289A9"></path>
            <path d="M39.5035757,65.2600234 C41.8922632,65.3035823 48.7181516,56.5901413 49.7797444,55.2153392 C49.5034565,55.1037454 49.3122121,55.020776 49.1699197,54.9332434 C49.1699197,54.9332434 41.4836392,64.3170768 39.5035757,64.411247 C37.5230973,64.5054172 28.4226043,55.0747061 28.4226043,55.0747061 C28.4226043,55.0747061 28.1795041,55.1634833 27.7671464,55.3231993 C28.7627786,56.3906 37.0667659,65.2156348 39.5035757,65.2600234" id="Fill-1622" fill="#FAF8DC"></path>
            <path d="M13.239006,65.9199616 C14.5611225,71.0126203 19.5587813,71.5784712 20.4063132,78.1799275 C16.0682608,86.1955963 11.6360381,98.1730515 11.6360381,98.1730515 C11.6360381,98.1730515 28.516567,99.0214131 35.3067786,101.096062 L35.1180233,109.112145 L7.58049636,109.112145 C1.54530591,109.112145 -1.34410167,105.003088 0.601944412,95.7208924 C3.05410352,84.0267775 9.65555978,70.9180352 13.239006,65.9199616" id="Fill-1623" fill="#FFD6CB"></path>
            <path d="M64.1277999,65.9199616 C63.694285,71.1067905 55.5578958,74.7142978 56.9609075,78.1799275 C60.1668431,86.1014261 65.2018381,98.3613919 65.2018381,98.3613919 C65.2018381,98.3613919 48.4913963,97.8897112 42.2674506,99.8701895 L42.2674506,109.112145 L69.7863095,109.112145 C75.8219148,109.112145 78.7872393,104.575381 76.6130275,95.3437967 C74.4803004,86.2901813 70.2003265,74.4073112 64.1277999,65.9199616" id="Fill-1624" fill="#FFD6CB"></path>
            <path d="M20.4023721,116.104055 C27.1714265,115.088511 29.8592185,121.620273 32.3478842,131.906812 C34.8365498,142.192937 41.3069145,169.733368 44.5418894,179.190215 C47.520489,187.896603 44.0440733,185.162763 42.5514547,189.891187 C41.1658666,194.278191 38.9132487,197.555065 35.5832739,197.730545 C33.2190623,197.854585 35.5413744,190.637911 38.1963936,185.162763 C37.8226167,180.061393 32.4723382,170.10673 24.135578,152.064631 C15.9290797,134.304627 15.7573331,131.491966 15.259517,125.519417 C14.7617009,119.546454 17.9141214,116.477417 20.4023721,116.104055" id="Fill-1625" fill="#FFD1C4"></path>
            <path d="M44.1685688,115.855106 C50.5148943,115.855106 50.3904403,128.422473 50.0170782,135.141746 C49.6437161,141.861019 45.6620171,163.014469 40.6846858,177.323778 C35.7073546,191.633501 34.9610453,193.997298 34.8365913,198.103866 C34.7121372,202.210019 30.1077532,202.956328 26.9972323,202.831874 C23.8862966,202.70742 23.8862966,201.961111 27.1216863,193.126535 C30.3570761,184.291958 34.4628144,159.405717 35.2095385,144.723046 C35.9562626,130.040375 32.7208729,115.855106 44.1685688,115.855106" id="Fill-1629" fill="#FFDDD4"></path>
            <path d="M14.0877409,120.994933 C16.7282405,116.562295 46.2931234,116.468125 55.2048612,120.429082 L54.6394251,107.839313 L16.7282405,108.546626 L14.0877409,120.994933 Z" id="Fill-1631" fill="#035E80"></path>
            <path d="M57.0462415,108.829261 L16.0187281,108.829261 C14.5875068,108.829261 13.4271804,107.66935 13.4271804,106.238129 L13.4271804,80.4881762 C13.4271804,79.056955 14.5875068,77.8970435 16.0187281,77.8970435 L57.0462415,77.8970435 C58.4774627,77.8970435 59.6373742,79.056955 59.6373742,80.4881762 L59.6373742,106.238129 C59.6373742,107.66935 58.4774627,108.829261 57.0462415,108.829261" id="Fill-1632" fill="#FCFBEB"></path>
            <path d="M59.6374157,109.395195 L13.4272219,109.395195 L13.4272219,81.0541102 C13.4272219,79.6228889 14.5875483,78.4629774 16.0183547,78.4629774 L57.0462829,78.4629774 C58.4775042,78.4629774 59.6374157,79.6228889 59.6374157,81.0541102 L59.6374157,109.395195 Z" id="Fill-1633" fill="#E6E5CE"></path>
            <path d="M59.6374157,109.395195 L13.4272219,109.395195 L13.4272219,110.293338 C13.4272219,110.604059 13.6794488,110.856285 13.9905838,110.856285 L59.0744687,110.856285 C59.3856037,110.856285 59.6374157,110.604059 59.6374157,110.293338 L59.6374157,109.395195 Z" id="Fill-1634" fill="#184657"></path>
            <path d="M40.3988979,93.8345842 C40.3988979,96.0743418 38.5835286,97.8897112 36.3441858,97.8897112 C34.1040134,97.8897112 32.288644,96.0743418 32.288644,93.8345842 C32.288644,91.5952415 34.1040134,89.7794573 36.3441858,89.7794573 C38.5835286,89.7794573 40.3988979,91.5952415 40.3988979,93.8345842" id="Fill-1635" fill="#FAF8DC"></path>
            <g id="编组" transform="translate(92.290459, 119.378316)">
                <mask id="mask-10" fill="white">
                    <use xlink:href="#path-9"></use>
                </mask>
                <g id="Clip-1722"></g>
                <path d="M0.519388125,6.35047397 C2.26755231,-0.440567243 2.24390604,0.560872799 1.53493296,0.185436495 L1.53493296,0.185436495 C-0.213646074,6.97606287 -0.189999809,5.97462282 0.519388125,6.35047397" id="Fill-1721" fill="url(#linearGradient-11)" mask="url(#mask-10)"></path>
            </g>
            <g id="编组" transform="translate(94.364693, 119.378316)">
                <mask id="mask-13" fill="white">
                    <use xlink:href="#path-12"></use>
                </mask>
                <g id="Clip-1724"></g>
                <path d="M0.501964562,6.21233001 C2.06012894,-0.346811879 2.01159187,0.653383624 1.33497683,0.323165614 L1.33497683,0.323165614 C-0.223187549,6.8823075 -0.174235633,5.882112 0.501964562,6.21233001" id="Fill-1723" fill="url(#linearGradient-14)" mask="url(#mask-13)"></path>
            </g>
            <g id="编组" transform="translate(85.238065, 97.391439)">
                <path d="M12.7459173,14.5017562 L12.7459173,6.65078153 C12.7459173,2.40026178 10.4559633,0.031486868 7.63127182,0.031486868 C4.80658033,0.031486868 2.51704114,2.40026178 2.51704114,6.65078153 L2.51704114,14.5017562 C2.51704114,19.8578425 5.40230025,22.6410493 8.96127048,22.6410493 L11.6204381,22.6410493 C15.1794083,22.6410493 18.0646675,19.8578425 18.0646675,14.5017562 L12.7459173,14.5017562 Z" id="Fill-1725" fill="#FFEEE3"></path>
                <polygon id="Fill-1727" fill="#F69548" points="0.0586593298 5.8791251 3.28782639 7.71316256 3.28782639 4.04508764"></polygon>
                <path d="M6.4405372,5.00968929 C6.4405372,5.50377177 6.19577762,5.90409888 5.89418404,5.90409888 C5.59217561,5.90409888 5.34741603,5.50377177 5.34741603,5.00968929 C5.34741603,4.51602167 5.59217561,4.11527971 5.89418404,4.11527971 C6.19577762,4.11527971 6.4405372,4.51602167 6.4405372,5.00968929" id="Fill-1729" fill="#000000"></path>
                <path d="M16.8846359,8.505105 C16.8846359,8.505105 18.7891973,13.7168247 14.5594199,16.7887648 C11.743855,18.8331296 8.49270108,19.108173 7.37427426,17.5114278 C6.25626228,15.9146827 7.66010366,13.0024586 10.509686,11.0066309 C13.3592682,9.01080318 16.8846359,8.505105 16.8846359,8.505105" id="Fill-1731" fill="#F2D79D"></path>
            </g>
        </g>
        <path d="M499.741061,313.730954 C498.916345,313.730954 498.247198,313.062221 498.247198,312.237091 L498.247198,294.611497 C498.247198,293.786367 498.916345,293.118049 499.741061,293.118049 C500.565776,293.118049 501.234924,293.786367 501.234924,294.611497 L501.234924,312.237091 C501.234924,313.062221 500.565776,313.730954 499.741061,313.730954" id="Fill-1636" fill="#035E80"></path>
        <path d="M114.136199,303.424418 C114.136199,304.674352 113.122728,305.687822 111.872795,305.687822 C110.622447,305.687822 109.609391,304.674352 109.609391,303.424418 C109.609391,302.174485 110.622447,301.161014 111.872795,301.161014 C113.122728,301.161014 114.136199,302.174485 114.136199,303.424418" id="Fill-1638" fill="#000000"></path>
        <path d="M392.046223,408.41487 C391.407359,411.871788 388.520441,426.160769 388.473148,429.131486 C388.432908,431.652095 381.613243,430.462315 376.967789,430.498821 C371.026354,430.546114 368.236509,431.427248 368.527317,429.320242 C368.716072,427.952492 375.128773,428.18854 379.68379,421.784965 L382.123919,409.289781 L392.046223,408.41487 Z" id="Fill-1650" fill="#F29D7E"></path>
        <path d="M386.479022,428.030732 C385.216228,428.33357 379.512085,427.447872 379.512085,427.447872 C379.512085,427.447872 379.044138,426.079293 377.890449,424.388378 C374.249754,426.416149 367.720896,428.219487 367.622163,429.873066 C367.557447,430.962454 370.684562,430.867869 378.156366,430.665839 C382.800161,430.54014 387.48461,431.478523 388.298125,429.595949 C388.447055,429.251211 388.619216,428.571277 388.805067,427.657785 C387.955461,427.763986 387.037405,427.896737 386.479022,428.030732" id="Fill-1651" fill="#FAF8DC"></path>
        <path d="M388.517205,428.824998 C387.703691,430.707157 383.019241,429.768774 378.375862,429.894887 C371.447921,430.082398 368.25692,430.176568 367.880654,429.320739 C367.725916,429.507006 367.63299,429.690783 367.622204,429.8729 C367.557488,430.962703 370.684603,430.868118 378.156408,430.665673 C382.800202,430.539974 387.484652,431.478357 388.298166,429.596198 C388.386943,429.390019 388.484432,429.062705 388.588144,428.639146 C388.563668,428.708011 388.540437,428.771897 388.517205,428.824998" id="Fill-1652" fill="#41B093"></path>
        <path d="M388.595404,427.684584 C389.156691,423.008017 391.481078,411.473203 392.046099,408.414953 L382.123795,409.289864 L379.684081,421.785048 C378.716243,423.145746 377.663777,424.204435 376.606333,425.044499 C373.358498,426.589803 368.975227,428.003601 367.880446,429.320739 C367.84311,429.365958 367.809093,429.411176 367.779224,429.45598 C367.77632,429.460543 367.774246,429.465106 367.771342,429.469255 C367.745206,429.50991 367.721145,429.550565 367.701647,429.59122 C367.693765,429.606984 367.688787,429.622333 367.682565,429.638097 C367.670119,429.668796 367.656429,429.69908 367.648132,429.729778 C367.634442,429.777486 367.624901,429.825608 367.621997,429.8729 C367.557281,430.962703 370.684396,430.868118 378.156615,430.665673 C382.239122,430.555323 386.351498,431.266371 387.839138,430.161219 C388.235317,429.918948 388.465972,429.586241 388.473024,429.131569 C388.473439,429.112901 388.474269,429.091744 388.474683,429.072246 C388.48464,429.037814 388.563875,428.737465 388.587937,428.639146 C388.657631,428.353317 388.730229,428.025588 388.805316,427.658034 C388.736037,427.666746 388.665513,427.675872 388.595404,427.684584" id="Fill-1653" fill="#FAF8DC"></path>
        <path d="M458.746196,356.591011 C453.67179,363.063035 442.761321,383.327054 442.761321,383.327054 C442.761321,383.327054 427.625223,356.166623 424.230117,349.942677 C420.835011,343.718317 419.797479,344.048535 419.797479,344.048535 C419.797479,344.048535 416.072571,346.641742 418.383267,351.592938 C419.204663,353.352717 419.703309,355.459309 420.929596,359.514436 C422.155468,363.569563 429.275483,394.690951 441.912545,396.482674 C454.549606,398.274397 470.569743,372.711956 473.646661,368.096371 C480.059362,358.477319 467.139375,345.887135 458.746196,356.591011" id="Fill-1654" fill="#F29D7E"></path>
        <path d="M458.746196,356.591011 C453.67179,363.063035 442.761321,383.327054 442.761321,383.327054 C442.761321,383.327054 427.625223,356.166623 424.230117,349.942677 C420.835011,343.718317 419.797479,344.048535 419.797479,344.048535 C419.797479,344.048535 416.072571,346.641742 418.383267,351.592938 C419.204663,353.352717 419.703309,355.459309 420.929596,359.514436 C422.155468,363.569563 429.275483,394.690951 441.912545,396.482674 C454.549606,398.274397 470.569743,372.711956 473.646661,368.096371 C480.059362,358.477319 467.139375,345.887135 458.746196,356.591011" id="Fill-1655" fill="#F8B5A3"></path>
        <path d="M468.224075,345.76936 C463.414342,350.579094 454.818302,348.994794 453.087977,347.891302 C449.975381,345.90626 449.692871,344.920584 448.631693,341.73788 C454.573128,336.999085 455.158892,337.612644 455.181293,334.731948 C455.20494,331.548414 450.639136,315.73819 450.639136,315.73819 L463.800979,312.81352 C463.800979,312.81352 468.041128,328.480208 469.071192,331.016166 C469.693877,332.549024 473.245795,335.018607 474.80147,336.786684 C473.517519,340.660108 471.102697,342.890739 468.224075,345.76936" id="Fill-1656" fill="#FFD1C4"></path>
        <path d="M455.034438,325.963664 C454.478543,326.100149 453.94422,326.183533 453.430225,326.220454 C452.040489,320.7926 450.639136,315.738522 450.639136,315.738522 L460.046616,313.604965 C461.074191,319.598671 459.469564,324.928622 455.034438,325.963664" id="Fill-1659" fill="#F4B6A5"></path>
        <path d="M448.631693,326.220454 C450.185723,327.061515 453.397793,325.206503 455.492578,324.192517 C460.316142,321.857662 462.599624,316.431233 461.117377,310.079099 C459.635544,303.727381 456.840307,298.950421 449.981231,300.550484 C442.429361,302.312753 442.730539,307.672159 444.212372,314.023877 C445.163577,318.100243 445.848107,324.713943 448.631693,326.220454 Z" id="Fill-1660" fill="#FFD6CB"></path>
        <path d="M463.414425,299.064255 C465.583658,301.893509 468.836887,304.722764 464.027568,313.634502 L459.359298,313.162821 L460.302244,303.025211 L463.414425,299.064255 Z" id="Fill-1661" fill="#333333"></path>
        <path d="M446.699005,311.425401 C446.781145,311.776777 447.13252,311.994986 447.48348,311.912846 C447.83444,311.831122 448.053065,311.479746 447.970925,311.128371 C447.8892,310.777411 447.537825,310.559201 447.186865,310.640926 C446.835489,310.723066 446.61728,311.074026 446.699005,311.425401" id="Fill-1662" fill="#000000"></path>
        <path d="M458.134048,315.294345 C460.623128,314.71356 462.170092,312.224894 461.589306,309.736229 C461.008521,307.247148 458.52027,305.700185 456.03119,306.28097 L458.134048,315.294345 Z" id="Fill-1663" fill="#FFCCBE"></path>
        <path d="M457.636564,313.162572 C458.948309,312.856415 459.763483,311.545085 459.457741,310.233339 C459.151169,308.921594 457.839839,308.10642 456.528508,308.412577 L457.636564,313.162572 Z" id="Fill-1664" fill="#F4B6A5"></path>
        <path d="M444.472854,311.47929 L442.563315,315.784155 C442.337638,316.293172 442.72469,316.862756 443.281414,316.839525 L445.817787,316.734569 L444.472854,311.47929 Z" id="Fill-1666" fill="#F4B6A5"></path>
        <path d="M456.222268,307.399895 L457.109625,310.928166 L455.87836,311.288253 C455.759299,310.395503 455.021702,308.311313 454.76906,307.629305 L456.222268,307.399895 Z" id="Fill-1667" fill="#333333"></path>
        <path d="M437.936952,292.708587 C441.585339,290.154749 443.066355,292.685708 447.335031,293.118049 C450.792109,293.468189 455.597241,292.722095 457.109625,293.118049 C460.937256,294.120151 461.331382,296.688374 462.939342,298.48946 C464.705943,300.468242 464.853634,302.62184 464.829094,304.251083 C464.749443,309.498065 457.355215,308.758393 455.445675,308.400381 C452.900175,307.923307 451.237885,305.399379 449.59841,302.129142 C449.59841,302.129142 447.391426,301.737942 443.84573,304.958397 C442.995174,304.520602 440.097548,303.508273 438.353089,301.191624 C436.31048,298.479032 435.604302,294.341421 437.936952,292.708587 Z" id="Fill-1668" fill="#333333"></path>
        <path d="M449.204306,308.722011 C448.863302,308.86057 448.520224,308.965941 448.184198,309.068408 L447.186906,309.370417 C446.858762,309.473713 446.531448,309.572032 446.209112,309.683626 C446.048981,309.740045 445.886362,309.79439 445.72706,309.855787 L445.223436,310.048691 C445.210576,310.054499 445.197301,310.059477 445.183611,310.063211 C445.17241,310.063211 445.189004,310.068604 445.113502,310.071508 C445.05169,310.071508 444.985314,310.029193 444.960838,309.993102 C444.895293,309.907228 444.911887,309.784849 444.99776,309.719303 C445.083633,309.654172 445.206428,309.670351 445.271974,309.756224 C445.250401,309.720962 445.1861,309.678648 445.127607,309.679063 C445.054594,309.683211 445.074092,309.686945 445.06538,309.6857 C445.057083,309.68736 445.048786,309.689849 445.040904,309.693167 C445.033851,309.695657 445.038415,309.689434 445.038415,309.689434 C445.040489,309.68487 445.048786,309.674914 445.054179,309.668277 L445.098982,309.615591 L445.19896,309.512294 C445.26824,309.443845 445.342083,309.381618 445.416755,309.319391 C445.568589,309.200329 445.728305,309.092054 445.894658,308.998299 C446.226951,308.808714 446.578741,308.661858 446.938828,308.553998 C447.660246,308.345745 448.406556,308.246182 449.15245,308.335789 C449.263214,308.349064 449.34162,308.449457 449.328345,308.559391 C449.318804,308.634893 449.269852,308.695461 449.204306,308.722011" id="Fill-1669" fill="#333333"></path>
        <path d="M328.918852,175.976043 L122.45502,175.976043 C109.501016,175.976043 99,186.476644 99,199.430648 L99,414.724493 C99,427.678083 109.501016,438.179098 122.45502,438.179098 L145.587289,438.179098 L328.918852,175.976043 Z" id="Fill-1637" fill="#FFFFFF" opacity="0.200000003"></path>
        <path d="M437.074477,395.27547 C431.286121,386.753688 416.825393,362.571442 400.414056,364.242859 C383.048986,366.011351 378.225148,421.96671 378.225148,421.96671 L391.329742,422.529242 L403.308441,383.376836 L430.642693,421.323697 L449.455578,414.08794 L437.074477,395.27547 Z" id="Fill-1672" fill="#E85F5B"></path>
        <path d="M437.074477,395.27547 C431.286121,386.753688 416.825393,362.571442 400.414056,364.242859 C383.048986,366.011351 378.225148,421.96671 378.225148,421.96671 L391.329742,422.529242 L403.308441,383.376836 L430.642693,421.323697 L449.455578,414.08794 L437.074477,395.27547 Z" id="Fill-1673" fill="#1D576C"></path>
        <path d="M402.295469,372.717598 C392.971788,373.004672 387.13199,410.815463 386.888061,412.425069 L387.447274,412.510112 C387.462208,412.412208 388.96105,402.613113 391.562139,392.909433 C394.973424,380.181105 398.69128,373.394627 402.312477,373.283034 C402.352303,373.281789 402.390469,373.281374 402.430709,373.281374 C411.393887,373.281374 429.321075,404.092042 429.502363,404.404837 L429.991882,404.121081 C429.243498,402.827174 411.547381,372.428449 402.295469,372.717598" id="Fill-1674" fill="#000000"></path>
        <path d="M329.298621,427.903125 C325.829257,428.470221 310.407744,430.911179 308.058882,430.601703 C306.025718,430.333712 305.647793,425.571272 304.257641,421.139049 C302.020373,414.007004 301.074937,411.024671 302.140263,410.789452 C304.217816,410.330632 309.429536,420.004028 312.537567,420.786014 L325.122358,418.860296 L329.298621,427.903125 Z" id="Fill-1675" fill="#FFD1C4"></path>
        <path d="M472.609129,397.848018 C468.428719,407.173773 462.961868,429.363095 442.862958,430.488575 C422.764049,431.614054 400.41418,425.986658 384.335135,426.307749 C368.25609,426.62967 324.199366,430.810081 324.199366,430.810081 C324.199366,430.810081 323.073887,426.950762 322.75238,422.60939 C322.430459,418.268019 322.756529,416.192541 322.756529,416.192541 C322.756529,416.192541 363.271706,408.621173 384.978562,407.334733 C406.685004,406.048293 441.094052,409.103225 441.094052,409.103225 L428.873911,405.565827 L438.843094,386.753356 L472.609129,397.848018 Z" id="Fill-1676" fill="#1D576C"></path>
        <path d="M451.720517,411.866312 C451.115671,411.557666 449.550454,410.610156 447.940849,408.410223 C445.915567,405.642366 446.919911,399.844468 446.929867,399.785974 L446.372728,399.686411 C446.328754,399.934075 445.315698,405.78134 447.484102,408.74459 C449.0879,410.93664 450.640256,411.939325 451.364579,412.321813 C449.083751,415.1855 446.166964,417.875367 442.607164,419.325671 C435.793306,422.10141 424.109977,420.699228 410.58141,419.075103 C404.012312,418.28648 397.219196,417.470891 390.297478,417.042354 C373.928456,416.028884 354.5352,418.446611 337.424846,420.580582 C332.219764,421.229817 327.303,421.842961 322.733049,422.327502 C322.739271,422.421257 322.745494,422.515428 322.752131,422.609183 L322.782,422.891279 C327.360249,422.406323 332.282821,421.791935 337.494955,421.14187 C354.580418,419.010802 373.945879,416.595564 390.262631,417.606961 C397.167755,418.034668 403.952989,418.849012 410.514205,419.636806 C424.120763,421.270472 435.872127,422.680951 442.82081,419.849622 C453.006127,415.700325 458.020795,401.715427 458.070162,401.574794 L457.536669,401.387283 C457.50597,401.473571 455.579007,406.847911 451.720517,411.866312" id="Fill-1677" fill="#000000"></path>
        <path d="M448.631859,341.737755 C448.631859,341.737755 452.050196,348.103579 459.500429,347.726483 C466.950661,347.348972 474.801636,336.786559 474.801636,336.786559 C474.801636,336.786559 494.394018,345.651834 488.263828,369.888011 C484.371321,385.279655 477.041394,407.32793 477.041394,407.32793 C477.041394,407.32793 454.59694,408.836727 434.415476,395.067964 L436.300954,356.779683 C436.300954,356.779683 438.51748,349.14111 448.631859,341.737755" id="Fill-1678" fill="#D4ECF1"></path>
        <path d="M418.338754,339.402044 L424.34532,339.541017 C425.080013,339.558026 425.73879,339.999838 426.032916,340.673549 L431.125575,352.331157 C431.337562,352.815698 430.965859,353.354169 430.437759,353.328034 L423.988137,353.009017 C423.387439,352.979563 422.857679,352.605786 422.627854,352.049891 L417.754235,340.254554 C417.584148,339.842611 417.893208,339.391673 418.338754,339.402044" id="Fill-1679" fill="#184657"></path>
        <path d="M469.496949,357.722755 C464.422544,364.194779 450.635942,385.826132 450.635942,385.826132 C450.635942,385.826132 438.375976,357.298366 434.98087,351.074421 C431.585765,344.85006 427.766685,345.557374 427.766685,345.557374 L429.03985,346.971586 C429.03985,346.971586 426.681861,346.453028 426.634984,347.066171 C426.587691,347.679315 428.756925,348.056411 429.322361,348.811017 C429.322361,348.811017 427.153542,347.773485 426.729154,348.292044 C426.304765,348.811017 428.803802,349.659378 429.275483,350.272522 C429.275483,350.272522 427.29542,349.423745 427.059372,349.942719 C426.823739,350.461277 428.191074,351.027128 429.13402,352.724681 C430.077382,354.421819 430.454477,356.591053 431.68035,360.64618 C432.906222,364.701307 436.112572,396.671471 448.749634,398.463194 C461.386695,400.254917 481.320496,373.843699 484.397415,369.228114 C490.81053,359.609063 477.890129,347.018879 469.496949,357.722755" id="Fill-1680" fill="#FFD1C4"></path>
        <path d="M309.067167,428.424131 C308.430792,427.292429 307.723478,421.563396 307.723478,421.563396 C307.723478,421.563396 308.912014,420.739095 310.22293,419.167241 C307.277518,416.219755 303.758373,410.432228 302.140471,410.789411 C301.07473,411.024629 302.02058,414.006962 304.257434,421.139008 C305.648,425.571645 306.025926,430.334086 308.058675,430.602077 C308.431207,430.651029 309.132298,430.630701 310.061555,430.559762 C309.727188,429.771553 309.348848,428.924851 309.067167,428.424131" id="Fill-1682" fill="#FAF8DC"></path>
        <path d="M308.860117,430.601869 C306.827368,430.333878 306.449028,425.571438 305.059291,421.1388 C302.985057,414.526143 302.022198,411.482827 302.742372,410.886692 C302.521259,410.788789 302.318399,410.749793 302.140429,410.789203 C301.074688,411.024836 302.020539,414.00717 304.257392,421.1388 C305.647959,425.571438 306.025884,430.333878 308.058633,430.601869 C308.280991,430.630908 308.62324,430.635472 309.058829,430.619293 C308.98623,430.614729 308.917781,430.609336 308.860117,430.601869" id="Fill-1683" fill="#41B093"></path>
        <path d="M229.55959,467.732478 L50.0566476,467.732478 C49.3530675,467.732478 48.7834829,466.98285 48.7834829,466.058157 C48.7834829,465.133463 49.3530675,464.38425 50.0566476,464.38425 L229.55959,464.38425 C230.26234,464.38425 230.832339,465.133463 230.832339,466.058157 C230.832339,466.98285 230.26234,467.732478 229.55959,467.732478" id="Fill-1684" fill="#9FD4E0"></path>
        <path d="M113.500944,389.841144 C116.89605,398.187031 118.239739,410.034224 118.664127,418.521988 L100.274385,420.361004 L113.500944,389.841144 Z" id="Fill-1685" fill="#FAF8DC"></path>
        <path d="M165.534217,416.563912 C165.534217,416.563912 164.069393,412.966776 156.996671,413.466251 C150.851961,413.900596 126.924431,417.783561 120.75317,418.794957 C118.337518,422.544342 115.875402,426.262199 113.241126,429.857261 C124.20594,433.970466 147.106725,422.433993 150.718381,421.409737 C154.793835,420.254388 156.824095,419.401463 158.762259,419.279498 C160.700008,419.157534 161.91385,420.003821 162.22374,419.525503 C162.533216,419.047184 160.750205,417.837491 160.750205,417.837491 C161.520575,417.903867 163.583608,419.549979 163.791446,418.913189 C163.999284,418.275569 161.955334,417.009042 161.955334,417.009042 C162.896207,417.078736 164.383847,418.701202 164.874196,418.330744 C165.365375,417.960286 163.656621,416.255266 163.656621,416.255266 L165.534217,416.563912 Z" id="Fill-1686" fill="#F29D7E"></path>
        <path d="M165.534217,416.563912 C165.534217,416.563912 164.069393,412.966776 156.996671,413.466251 C150.851961,413.900596 126.924431,417.783561 120.75317,418.794957 C118.337518,422.544342 115.875402,426.262199 113.241126,429.857261 C124.20594,433.970466 147.106725,422.433993 150.718381,421.409737 C154.793835,420.254388 156.824095,419.401463 158.762259,419.279498 C160.700008,419.157534 161.91385,420.003821 162.22374,419.525503 C162.533216,419.047184 160.750205,417.837491 160.750205,417.837491 C161.520575,417.903867 163.583608,419.549979 163.791446,418.913189 C163.999284,418.275569 161.955334,417.009042 161.955334,417.009042 C162.896207,417.078736 164.383847,418.701202 164.874196,418.330744 C165.365375,417.960286 163.656621,416.255266 163.656621,416.255266 L165.534217,416.563912 Z" id="Fill-1687" fill="#FFB9A6"></path>
        <path d="M94.7939695,388.560553 C96.5989677,395.118866 104.854833,397.98919 106.904176,397.885064 C110.591334,397.697553 108.931117,398.884015 111.42642,396.641353 C110.947272,389.587299 110.183124,387.925423 111.587381,385.410207 C113.139737,382.630734 124.921799,371.141968 124.921799,371.141968 L114.924823,362.095405 C114.924823,362.095405 103.496624,373.620263 101.348133,375.315741 C100.049248,376.340828 95.7406497,376.732443 93.5141673,377.500739 C92.7168318,381.502766 93.7137085,384.635273 94.7939695,388.560553" id="Fill-1688" fill="#FFD0C3"></path>
        <path d="M115.388414,378.542876 C115.81778,378.920801 116.252954,379.242722 116.691862,379.513202 C120.435439,375.344407 124.016811,371.512468 124.016811,371.512468 L116.664897,365.26778 C112.979814,370.105723 111.935644,375.572573 115.388414,378.542876" id="Fill-1691" fill="#F4B6A5"></path>
        <path d="M117.925285,351.011447 C114.951248,352.977406 110.77706,354.513583 112.412386,364.507656 L117.154499,365.661345 L119.573471,355.771398 L117.925285,351.011447 Z" id="Fill-1692" fill="#444444"></path>
        <path d="M131.18947,371.421409 C129.098642,374.742672 126.120458,378.688279 123.229391,379.411772 C121.314873,379.890505 119.745508,378.881598 116.869375,375.942409 C114.079531,373.090752 113.024161,367.692352 116.499332,362.172816 C119.974503,356.652865 124.176486,353.050751 130.136589,356.803039 C136.69905,360.934498 134.664641,365.901873 131.18947,371.421409" id="Fill-1693" fill="#FFD6CB"></path>
        <path d="M129.687683,368.153246 C129.495609,368.458573 129.091963,368.550255 128.787051,368.358181 C128.482139,368.165692 128.390043,367.762876 128.582532,367.457548 C128.774606,367.152221 129.177837,367.06054 129.483164,367.252614 C129.788076,367.444688 129.879757,367.847919 129.687683,368.153246" id="Fill-1694" fill="#000000"></path>
        <path d="M117.616182,368.076085 C115.453171,366.714143 114.803936,363.857093 116.165463,361.694082 C117.52699,359.531529 120.384455,358.881836 122.547466,360.243778 L117.616182,368.076085 Z" id="Fill-1695" fill="#FFCDBF"></path>
        <path d="M118.782524,366.22367 C117.642525,365.505985 117.300277,364.000506 118.017961,362.860507 C118.735646,361.720923 120.24154,361.37826 121.381124,362.095945 L118.782524,366.22367 Z" id="Fill-1696" fill="#F4B6A5"></path>
        <path d="M131.774445,368.931291 L132.173528,373.623623 C132.220406,374.178688 131.66866,374.590216 131.150101,374.386941 L128.786719,373.459344 L131.774445,368.931291 Z" id="Fill-1698" fill="#F4B6A5"></path>
        <path d="M122.001237,361.238788 L120.010387,364.283763 L121.056631,365.025924 C121.460277,364.221536 122.837983,362.49204 123.299707,361.930338 L122.001237,361.238788 Z" id="Fill-1699" fill="#444444"></path>
        <path d="M125.784515,350.123053 C119.58629,347.142379 115.415835,352.496806 114.519766,355.223593 C112.881536,360.208807 120.486507,362.152779 122.408492,362.438193 C124.970171,362.818608 127.365081,360.975443 129.983179,358.419988 C129.983179,358.419988 132.196801,358.770948 134.496296,362.972931 C136.552277,362.67756 139.349118,359.929615 136.834317,355.223593 C135.165388,352.100627 131.199924,352.727046 125.784515,350.123053 Z" id="Fill-1700" fill="#444444"></path>
        <path d="M128.439866,364.336366 C129.187834,364.408549 129.895148,364.665754 130.555584,365.024182 C130.884558,365.206299 131.196522,365.425339 131.479863,365.681299 C131.62257,365.808657 131.755321,365.94846 131.878116,366.097805 C131.937854,366.174552 131.996762,366.250884 132.049447,366.332608 L132.125364,366.454988 L132.157722,366.515971 C132.161456,366.523853 132.167264,366.535054 132.168094,366.540032 C132.168094,366.540032 132.171412,366.546669 132.164775,366.543351 C132.158137,366.538372 132.150255,366.533809 132.142788,366.530905 C132.134491,366.530075 132.153989,366.53049 132.083465,366.510578 C132.026216,366.497717 131.954862,366.525097 131.926238,366.555381 C132.008792,366.485687 132.131587,366.495643 132.201281,366.577783 C132.27139,366.660337 132.261434,366.783547 132.179294,366.853241 C132.147766,366.88311 132.073508,366.91049 132.012941,366.897215 C131.939928,366.878132 131.957351,366.876472 131.94698,366.873983 C131.934535,366.867346 131.922504,366.859879 131.910474,366.851167 L131.846587,366.807193 L131.45995,366.555381 C131.317658,366.460796 131.170802,366.373263 131.02602,366.283242 C130.735213,366.105687 130.436523,365.939334 130.138248,365.768417 L129.228489,365.2594 C128.922333,365.087238 128.613272,364.913418 128.310019,364.70475 C128.218338,364.642108 128.191373,364.51475 128.254844,364.422654 C128.297159,364.360427 128.369342,364.329728 128.439866,364.336366" id="Fill-1701" fill="#444444"></path>
        <path d="M127.577358,375.513748 C127.711353,375.64235 127.847423,375.761411 127.979759,375.872175 C127.85738,376.037699 127.713843,376.219817 127.551637,376.407328 C127.343384,376.259642 127.129738,376.084577 126.924389,375.887525 C126.170613,375.163617 125.812185,374.426434 126.12415,374.240998 C126.4357,374.055146 126.823996,374.78984 127.577358,375.513748" id="Fill-1702" fill="#ED6D53"></path>
        <path d="M447.325974,320.735455 C447.45997,320.864058 447.59604,320.983119 447.728376,321.093883 C447.605996,321.259407 447.462459,321.441524 447.300254,321.629035 C447.092001,321.48135 446.878355,321.306284 446.673006,321.109232 C445.919229,320.385325 445.560802,319.648142 445.872766,319.462705 C446.184316,319.276854 446.572613,320.011548 447.325974,320.735455" id="Fill-1702" fill="#ED6D53" transform="translate(446.744262, 320.531280) scale(-1, 1) rotate(-23.000000) translate(-446.744262, -320.531280) "></path>
        <path d="M145.118821,442.363397 C145.75727,445.820315 148.644603,460.109296 148.691481,463.080013 C148.731721,465.600622 155.551387,464.410427 160.197255,464.447348 C166.138276,464.494641 171.898837,465.375775 171.608445,463.268769 C171.419275,461.901019 162.035856,462.137067 157.481254,455.733492 L155.041125,443.238308 L145.118821,442.363397 Z" id="Fill-1703" fill="#F29D7E"></path>
        <path d="M145.118821,442.363397 C145.75727,445.820315 148.644603,460.109296 148.691481,463.080013 C148.731721,465.600622 155.551387,464.410427 160.197255,464.447348 C166.138276,464.494641 171.898837,465.375775 171.608445,463.268769 C171.419275,461.901019 162.035856,462.137067 157.481254,455.733492 L155.041125,443.238308 L145.118821,442.363397 Z" id="Fill-1704" fill="#FFC9BA"></path>
        <path d="M100.090152,429.223831 C105.878509,420.702049 120.338407,396.533493 136.750574,398.191221 C151.765537,399.7079 157.706972,443.984908 157.706972,443.984908 L143.702575,448.440777 L133.856603,417.325197 L106.521936,455.272058 L87.7094657,448.036301 L100.090152,429.223831 Z" id="Fill-1705" fill="#184657"></path>
        <path d="M100.090152,429.223831 C105.878509,420.702049 120.338407,396.533493 136.750574,398.191221 C151.765537,399.7079 157.706972,443.984908 157.706972,443.984908 L143.702575,448.440777 L133.856603,417.325197 L106.521936,455.272058 L87.7094657,448.036301 L100.090152,429.223831 Z" id="Fill-1706" fill="#184657"></path>
        <path d="M56.1390476,428.707098 C52.4614312,441.579793 51.636301,461.669576 64.4849344,464.496342 C71.5580714,466.052432 80.7531495,465.062193 104.51806,465.203655 C128.00212,465.343459 143.278021,466.47682 143.136558,453.604126 C142.995096,440.731016 114.561915,443.984659 108.479017,443.418808 C102.396534,442.852957 74.2458635,442.570032 74.2458635,442.570032 L56.1390476,428.707098 Z" id="Fill-1708" fill="#184657"></path>
        <path d="M111.5203,385.632731 C111.5203,385.632731 109.77338,388.603863 104.164652,385.703255 C98.4974308,382.772777 96.1722148,376.367129 96.1722148,376.367129 C96.1722148,376.367129 78.7727126,380.04516 66.8898425,401.971055 C59.3259417,415.929404 53.3102491,435.921698 53.3102491,435.921698 C53.3102491,435.921698 61.4200881,445.776382 94.239029,442.805665 C94.239029,442.805665 104.094128,424.038828 109.186372,414.985627 C114.278616,405.932012 118.451974,398.363963 111.5203,385.632731" id="Fill-1709" fill="#FAF8DC"></path>
        <path d="M103.858205,393.389411 C110.000011,400.309055 112.157214,412.085724 112.157214,412.085724 L108.79737,416.329191 L103.858205,393.389411 Z" id="Fill-1710" fill="#E1DFC1"></path>
        <path d="M84.4308903,399.283595 C81.6962206,407.252386 89.3347937,433.610919 95.93625,439.552354 L102.679169,427.103633 L84.4308903,399.283595 Z" id="Fill-1711" fill="#E1DFC1"></path>
        <path d="M180.623065,401.093654 L180.404025,401.025619 L171.933685,428.29557 L142.618125,428.29557 L142.618125,428.57974 C142.618125,429.327294 143.224216,429.93297 143.971355,429.93297 L171.942396,429.93297 C172.735583,429.93297 173.396849,429.368779 173.547024,428.619566 L181.549832,402.855923 C181.780487,402.113348 181.36564,401.324309 180.623065,401.093654" id="Fill-1712" fill="#035E80"></path>
        <path d="M103.245227,397.303117 C106.198521,403.81704 113.786068,432.906509 113.786068,432.906509 C113.786068,432.906509 142.537852,421.18128 149.323915,419.128204 C156.110393,417.075127 158.335631,420.259076 158.335631,420.259076 L156.436047,420.373574 C156.436047,420.373574 158.479997,421.658354 158.082989,422.128376 C157.686395,422.597982 155.876419,421.345145 154.943844,421.485363 C154.943844,421.485363 157.217619,422.268179 157.155806,422.935667 C157.094409,423.602741 154.717752,422.45403 153.95153,422.560231 C153.95153,422.560231 155.958559,423.345121 155.762751,423.879858 C155.566529,424.415011 154.195045,423.858701 152.332383,424.406714 C150.469307,424.954312 148.678828,426.235358 144.960142,428.264789 C141.241041,430.293804 116.525301,450.824155 106.263652,443.234119 C96.0020032,435.644497 83.8652468,408.336795 84.4306829,399.283595 C85.1521014,387.745048 97.6277876,384.914963 103.245227,397.303117" id="Fill-1713" fill="#FFD0C3"></path>
        <path d="M74.578695,443.155007 L74.8562275,443.211426 C76.281226,436.180604 83.8521791,413.929884 86.7216741,409.116417 L86.4785739,408.97205 C83.5995375,413.800866 76.0070123,436.10925 74.578695,443.155007" id="Fill-1715" fill="#E289A9"></path>
        <path d="M111.284128,423.557771 C111.231027,423.364038 111.177512,423.16823 111.123582,422.970348 L108.478934,420.078037 L93.1072026,423.567313 L94.4438388,427.926523 C94.9350174,428.806827 95.4353225,429.673442 95.9439246,430.521389 C104.359506,428.965714 110.138321,424.500718 111.284128,423.557771" id="Fill-1716" fill="#F4B6A5"></path>
        <path d="M111.962278,422.941185 C109.285272,413.200583 105.644991,400.514155 103.751631,396.338722 C97.6309819,382.839194 84.0360392,385.923165 83.2503195,398.496755 C82.8827653,404.376378 87.4323895,417.321256 93.5356148,428.572314 C98.748579,427.997337 108.726058,424.600572 111.962278,422.941185" id="Fill-1717" fill="#FAF8DC"></path>
        <path d="M135.454592,464.496342 L137.566162,438.94759 C137.850747,435.505607 140.778736,432.809518 144.232335,432.809518 L190.856546,432.809518 C194.304337,432.809518 197.232325,435.501043 197.521473,438.937219 L199.674943,464.496342 L202.514154,464.496342 L200.340772,438.699512 C199.929244,433.810128 195.762938,429.980263 190.856546,429.980263 L144.232335,429.980263 C139.31806,429.980263 135.151754,433.816766 134.746449,438.714446 L132.615381,464.496342 L135.454592,464.496342 Z" id="Fill-1718" fill="#FCC14A"></path>
        <path d="M91.7672891,425.407573 L91.8066995,425.687595 C99.1876528,424.660434 111.051855,420.067666 111.170916,420.021203 L111.068034,419.75736 C110.949388,419.803823 99.1158843,424.384561 91.7672891,425.407573" id="Fill-1719" fill="#E289A9"></path>
        <path d="M112.405915,387.576703 C112.395958,387.598275 111.306986,389.728098 105.293782,388.817095 C99.4954691,387.938449 95.3478314,382.26625 93.8087499,377.034202 L93.5374402,377.114268 C94.1680072,379.259026 95.2329188,381.476381 96.667044,383.418279 C94.2725486,384.327623 92.3011969,386.262468 92.1597341,386.403516 C91.3520275,386.463669 90.5505436,386.608036 89.7660684,386.840765 C85.7997187,388.020174 84.177253,391.728074 83.5147428,394.630757 C82.6307044,398.5075 83.0779092,402.451863 83.7296334,404.651795 L84.0005283,404.571729 C82.4643508,399.38573 83.1040445,389.116614 89.8469635,387.112074 C92.820585,386.228036 96.0451887,386.631267 98.9267142,388.248755 C101.704943,389.808578 103.33695,391.972834 103.721098,393.425627 L103.995312,393.353029 C103.514504,391.538489 101.533196,389.387509 99.0648582,388.001921 C97.0117816,386.849891 94.7865437,386.301464 92.5949084,386.380285 C93.2055628,385.815263 94.888596,384.373256 96.8441836,383.652667 C98.9503605,386.413887 101.815292,388.576069 105.251468,389.096701 C106.335462,389.261395 107.264304,389.329015 108.06081,389.329015 C111.861221,389.329015 112.626198,387.775414 112.662705,387.695349 L112.405915,387.576703 Z" id="Fill-1720" fill="#E289A9"></path>
        <g id="编组" transform="translate(524.012402, 322.947977)" fill="#7ABA8E">
            <path d="M37.034005,70.1155301 C37.3360135,70.0147223 37.182935,69.5600503 36.8817563,69.6600283 C27.8161104,72.681772 26.7570066,73.5409196 37.034005,70.1155301" id="Fill-1857"></path>
            <path d="M30.0334662,74.8066585 C37.9470827,73.5301751 37.7305327,73.6699784 37.6753581,73.3306338 C37.6201835,72.9896298 37.9134801,73.0489529 29.9571344,74.3324887 C29.6464142,74.3831 29.7152788,74.8560253 30.0334662,74.8066585" id="Fill-1859"></path>
            <path d="M7.90603864,9.02287522 C8.13420435,9.02287522 8.23418242,8.73165281 8.0520647,8.5922643 C0.376570219,2.70766322 0.722137557,2.84082903 0.512639951,3.11462788 C0.260827977,3.44235681 7.8541828,9.02287522 7.90603864,9.02287522" id="Fill-1865"></path>
            <path d="M8.7466426,7.70258397 C8.94286511,7.70258397 9.05943705,7.47483311 8.93664241,7.31553196 C-3.37310506,-8.63117692 8.17539863,7.70258397 8.7466426,7.70258397" id="Fill-1867"></path>
        </g>
    </g>
</svg>