<?xml version="1.0" encoding="UTF-8"?>
<svg width="1240px" height="661px" viewBox="0 0 1240 661" version="1.1" xmlns="http://www.w3.org/2000/svg" xmlns:xlink="http://www.w3.org/1999/xlink">
    <title>远程授课</title>
    <defs>
        <polygon id="path-1" points="0 659.300106 1239.56964 659.300106 1239.56964 0.664199364 0 0.664199364"></polygon>
        <linearGradient x1="50%" y1="0%" x2="50%" y2="100%" id="linearGradient-3">
            <stop stop-color="#008FFF" offset="0%"></stop>
            <stop stop-color="#008BFF" stop-opacity="0.519191576" offset="100%"></stop>
        </linearGradient>
        <path d="M0.211331828,2.07868505 C1.06715576,1.9457052 1.87259594,1.84911983 2.64794582,1.79032874 L2.64794582,1.79032874 C2.72142212,1.59855779 2.77320542,1.49497349 2.77320542,1.49497349 L2.77320542,1.49497349 L6.243386,0.557115589 L6.243386,0.549416755 C4.29451467,1.0078473 2.10911964,1.57616119 0.211331828,2.07868505" id="path-4"></path>
        <linearGradient x1="50.1649733%" y1="53.1497086%" x2="49.9451369%" y2="48.9603053%" id="linearGradient-6">
            <stop stop-color="#EA98C9" offset="0%"></stop>
            <stop stop-color="#008AFF" offset="100%"></stop>
        </linearGradient>
        <path d="M3.60733634,13.008929 L3.63742664,13.008929 C3.63742664,13.008929 3.09860045,7.64004242 0.668984199,0.0853870626 L0.668984199,0.0853870626 L3.60733634,13.008929 Z" id="path-7"></path>
        <linearGradient x1="50.1583827%" y1="101.901491%" x2="49.9474468%" y2="32.8716572%" id="linearGradient-9">
            <stop stop-color="#EA98C9" offset="0%"></stop>
            <stop stop-color="#008AFF" offset="100%"></stop>
        </linearGradient>
    </defs>
    <g id="Page-1" stroke="none" stroke-width="1" fill="none" fill-rule="evenodd">
        <g id="30-Startup-Story-Illustrations" transform="translate(-1730.000000, -5861.000000)">
            <g id="远程授课" transform="translate(1730.000000, 5861.000000)">
                <g id="BG" transform="translate(0.000000, 0.035695)">
                    <path d="M382.438603,293.23856 C384.084472,308.031519 378.732598,320.670903 378.732598,320.670903 C378.732598,320.670903 370.713185,309.327022 369.067316,294.534764 C367.422147,279.741805 372.773321,267.10172 372.773321,267.10172 C372.773321,267.10172 380.792734,278.446301 382.438603,293.23856" id="Fill-2" fill="#D6EEFF"></path>
                    <path d="M378.966743,305.107712 C386.122634,318.395898 385.9176,331.985739 385.9176,331.985739 C385.9176,331.985739 374.111009,324.030045 366.955117,310.741858 C359.799226,297.452971 360.00426,283.86383 360.00426,283.86383 C360.00426,283.86383 371.810851,291.819525 378.966743,305.107712" id="Fill-4" fill="#D6EEFF"></path>
                    <path d="M389.039643,294.825989 C387.209734,309.600051 379.048966,320.855745 379.048966,320.855745 C379.048966,320.855745 373.855242,308.158969 375.685851,293.384908 C377.515761,278.611546 385.676528,267.355152 385.676528,267.355152 C385.676528,267.355152 390.869553,280.051928 389.039643,294.825989" id="Fill-6" fill="#D6EEFF"></path>
                    <path d="M394.997312,305.504131 C389.105212,319.322138 378.083767,328.205192 378.083767,328.205192 C378.083767,328.205192 376.614941,314.683241 382.507041,300.865234 C388.39914,287.046528 399.420585,278.164174 399.420585,278.164174 C399.420585,278.164174 400.889411,291.685425 394.997312,305.504131" id="Fill-8" fill="#D6EEFF"></path>
                    <line x1="636.381856" y1="34.7801803" x2="636.381856" y2="338.210806" id="Stroke-10" stroke="#AAD5FF" stroke-width="14"></line>
                    <line x1="252.692686" y1="38.7837137" x2="252.692686" y2="342.214339" id="Stroke-12" stroke="#E8F6FF" stroke-width="15.4"></line>
                    <line x1="447.059047" y1="46.2258961" x2="447.059047" y2="343.26859" id="Stroke-14" stroke="#E8F6FF" stroke-width="15.4"></line>
                    <mask id="mask-2" fill="white">
                        <use xlink:href="#path-1"></use>
                    </mask>
                    <g id="Clip-17"></g>
                    <path d="M229.285937,344.967932 L629.509932,344.967932 L629.509932,36.2608059 L229.285937,36.2608059 L229.285937,344.967932 Z M244.680971,329.569565 L614.114898,329.569565 L614.114898,51.6577731 L244.680971,51.6577731 L244.680971,329.569565 Z" id="Fill-16" fill="#D6EEFF" mask="url(#mask-2)"></path>
                    <line x1="432.546289" y1="37.5797561" x2="432.546289" y2="344.222195" id="Stroke-18" stroke="#D6EEFF" stroke-width="15.4" mask="url(#mask-2)"></line>
                    <line x1="229.286077" y1="190.614229" x2="629.510072" y2="190.614229" id="Stroke-19" stroke="#D6EEFF" stroke-width="15.4" mask="url(#mask-2)"></line>
                    <path d="M286.228528,375.93677 C286.228528,257.354437 224.969589,144.86958 224.969589,144.86958 L204.015549,144.86958 L204.015549,375.93677 L286.228528,375.93677 Z" id="Fill-20" fill="#C3E4FF" mask="url(#mask-2)"></path>
                    <path d="M286.228528,4.63959703 C286.228528,76.6047932 224.969589,144.86965 224.969589,144.86965 L204.015549,144.86965 L204.015549,4.63959703 L286.228528,4.63959703 Z" id="Fill-21" fill="#C3E4FF" mask="url(#mask-2)"></path>
                    <polygon id="Fill-22" fill="#E8F6FF" mask="url(#mask-2)" points="233.898149 154.977729 196.376953 156.606382 196.376953 136.592914 233.898149 138.221567"></polygon>
                    <path d="M572.427666,375.93649 C572.427666,257.354857 631.258388,144.8693 631.258388,144.8693 L651.381797,144.8693 L651.381797,375.93649 L572.427666,375.93649 Z" id="Fill-23" fill="#C3E4FF" mask="url(#mask-2)"></path>
                    <path d="M572.427666,4.63959703 C572.427666,76.6047932 631.258388,144.86965 631.258388,144.86965 L651.381797,144.86965 L651.381797,4.63959703 L572.427666,4.63959703 Z" id="Fill-24" fill="#C3E4FF" mask="url(#mask-2)"></path>
                    <polygon id="Fill-25" fill="#E8F6FF" mask="url(#mask-2)" points="622.057616 154.977729 657.121205 156.606382 657.121205 136.592914 622.057616 138.221567"></polygon>
                    <polygon id="Fill-26" fill="#C3E4FF" mask="url(#mask-2)" points="165.059955 15.1422057 687.297991 15.1422057 687.297991 4.63959703 165.059955 4.63959703"></polygon>
                    <path d="M688.601111,9.89090138 C688.601111,14.9861294 684.195332,19.1176034 678.760185,19.1176034 C673.325738,19.1176034 668.919959,14.9861294 668.919959,9.89090138 C668.919959,4.79497349 673.325738,0.664199364 678.760185,0.664199364 C684.195332,0.664199364 688.601111,4.79497349 688.601111,9.89090138" id="Fill-27" fill="#C3E4FF" mask="url(#mask-2)"></path>
                    <path d="M438.889673,9.89090138 C438.889673,14.9861294 434.483894,19.1176034 429.048747,19.1176034 C423.6143,19.1176034 419.208521,14.9861294 419.208521,9.89090138 C419.208521,4.79497349 423.6143,0.664199364 429.048747,0.664199364 C434.483894,0.664199364 438.889673,4.79497349 438.889673,9.89090138" id="Fill-28" fill="#C3E4FF" mask="url(#mask-2)"></path>
                    <path d="M174.900181,9.89090138 C174.900181,14.9861294 170.494402,19.1176034 165.059255,19.1176034 C159.624808,19.1176034 155.219029,14.9861294 155.219029,9.89090138 C155.219029,4.79497349 159.624808,0.664199364 165.059255,0.664199364 C170.494402,0.664199364 174.900181,4.79497349 174.900181,9.89090138" id="Fill-29" fill="#C3E4FF" mask="url(#mask-2)"></path>
                    <polygon id="Fill-30" fill="#C3E4FF" mask="url(#mask-2)" points="232.96535 407.248696 268.994628 407.248696 268.994628 355.564327 232.96535 355.564327"></polygon>
                    <g id="Group-33" mask="url(#mask-2)">
                        <g transform="translate(438.758465, 514.422057)">
                            <line x1="0.945115124" y1="0.287866384" x2="0.945115124" y2="33.7071029" id="Fill-31" stroke="none" fill="#C3E4FF" fill-rule="evenodd"></line>
                            <line x1="0.945115124" y1="0.287866384" x2="0.945115124" y2="33.7071029" id="Stroke-32" stroke="#C3E4FF" stroke-width="7.7" fill="none"></line>
                        </g>
                    </g>
                    <g id="Group-36" mask="url(#mask-2)">
                        <g transform="translate(386.275395, 514.422057)">
                            <line x1="0.460941309" y1="0.287866384" x2="0.460941309" y2="33.7071029" id="Fill-34" stroke="none" fill="#C3E4FF" fill-rule="evenodd"></line>
                            <line x1="0.460941309" y1="0.287866384" x2="0.460941309" y2="33.7071029" id="Stroke-35" stroke="#C3E4FF" stroke-width="7.7" fill="none"></line>
                        </g>
                    </g>
                    <g id="Group-39" mask="url(#mask-2)">
                        <g transform="translate(155.349887, 514.422057)">
                            <line x1="0.568566591" y1="0.287866384" x2="0.568566591" y2="33.7071029" id="Fill-37" stroke="none" fill="#C3E4FF" fill-rule="evenodd"></line>
                            <line x1="0.568566591" y1="0.287866384" x2="0.568566591" y2="33.7071029" id="Stroke-38" stroke="#C3E4FF" stroke-width="7.7" fill="none"></line>
                        </g>
                    </g>
                    <g id="Group-42" mask="url(#mask-2)">
                        <g transform="translate(102.167043, 514.422057)">
                            <line x1="0.783817156" y1="0.287866384" x2="0.783817156" y2="33.7071029" id="Fill-40" stroke="none" fill="#C3E4FF" fill-rule="evenodd"></line>
                            <line x1="0.783817156" y1="0.287866384" x2="0.783817156" y2="33.7071029" id="Stroke-41" stroke="#C3E4FF" stroke-width="7.7" fill="none"></line>
                        </g>
                    </g>
                    <polygon id="Fill-43" fill="#D6EEFF" mask="url(#mask-2)" points="79.1941535 514.709714 363.410271 514.709714 363.410271 407.248696 79.1941535 407.248696"></polygon>
                    <polygon id="Fill-44" fill="#C3E4FF" mask="url(#mask-2)" points="95.5583747 502.380382 214.125327 502.380382 214.125327 418.824242 95.5583747 418.824242"></polygon>
                    <polygon id="Fill-45" fill="#C3E4FF" mask="url(#mask-2)" points="228.479097 503.134168 347.04605 503.134168 347.04605 419.577328 228.479097 419.577328"></polygon>
                    <polygon id="Fill-46" fill="#AAD5FF" mask="url(#mask-2)" points="363.410271 514.709714 463.029436 514.709714 463.029436 407.248696 363.410271 407.248696"></polygon>
                    <path d="M297.043959,461.355958 C297.043959,466.482681 292.8887,470.638651 287.762853,470.638651 C282.637007,470.638651 278.482447,466.482681 278.482447,461.355958 C278.482447,456.229934 282.637007,452.073264 287.762853,452.073264 C292.8887,452.073264 297.043959,456.229934 297.043959,461.355958" id="Fill-47" fill="#D6EEFF" mask="url(#mask-2)"></path>
                    <path d="M164.122677,460.602802 C164.122677,465.728825 159.967418,469.885495 154.841571,469.885495 C149.716424,469.885495 145.561165,465.728825 145.561165,460.602802 C145.561165,455.476078 149.716424,451.319408 154.841571,451.319408 C159.967418,451.319408 164.122677,455.476078 164.122677,460.602802" id="Fill-48" fill="#D6EEFF" mask="url(#mask-2)"></path>
                    <path d="M331.331849,381.001832 L331.331849,381.001832 C331.331849,385.8339 335.248485,389.750507 340.079727,389.750507 L418.781939,389.750507 L418.781939,372.253158 L340.079727,372.253158 C335.248485,372.253158 331.331849,376.169765 331.331849,381.001832" id="Fill-49" fill="#C3E4FF" mask="url(#mask-2)"></path>
                    <path d="M384.266273,381.001832 L384.266273,381.001832 C384.266273,383.799309 386.533542,386.066965 389.33054,386.066965 L418.571307,386.066965 C418.68747,386.066965 418.781939,385.972479 418.781939,385.856297 L418.781939,376.147368 C418.781939,376.031186 418.68747,375.9367 418.571307,375.9367 L389.33054,375.9367 C386.533542,375.9367 384.266273,378.204356 384.266273,381.001832" id="Fill-50" fill="#D6EEFF" mask="url(#mask-2)"></path>
                    <path d="M320.347282,389.750787 L320.347282,407.248836 L406.250871,407.248836 C411.082113,407.248836 414.998749,403.331529 414.998749,398.499461 C414.998749,393.668093 411.082113,389.750787 406.250871,389.750787 L320.347282,389.750787 Z" id="Fill-51" fill="#C3E4FF" mask="url(#mask-2)"></path>
                    <path d="M320.347282,393.483671 L320.347282,403.515951 L355.667688,403.515951 C358.437395,403.515951 360.682971,401.269992 360.682971,398.499811 C360.682971,395.728931 358.437395,393.483671 355.667688,393.483671 L320.347282,393.483671 Z" id="Fill-52" fill="#D6EEFF" mask="url(#mask-2)"></path>
                    <polygon id="Fill-53" fill="#D6EEFF" mask="url(#mask-2)" points="256.754316 407.248836 199.232871 407.248836 220.946867 329.291847 278.468312 329.291847"></polygon>
                    <polygon id="Fill-54" fill="#E8F6FF" mask="url(#mask-2)" points="244.858153 407.248836 187.336709 407.248836 209.050704 329.291847 266.572149 329.291847"></polygon>
                    <polygon id="Fill-55" fill="#C3E4FF" mask="url(#mask-2)" points="237.626336 395.219758 201.269564 395.219758 216.282521 341.320925 252.639293 341.320925"></polygon>
                    <polygon id="Fill-56" fill="#C3E4FF" mask="url(#mask-2)" points="152.925169 407.248696 178.40605 407.248696 178.40605 370.696734 152.925169 370.696734"></polygon>
                    <polygon id="Fill-57" fill="#D6EEFF" mask="url(#mask-2)" points="167.650239 407.248836 126.969562 407.248836 142.326808 352.116089 183.006786 352.116089"></polygon>
                    <polygon id="Fill-58" fill="#E8F6FF" mask="url(#mask-2)" points="159.237273 407.248836 118.556596 407.248836 133.913842 352.116089 174.593819 352.116089"></polygon>
                    <polygon id="Fill-59" fill="#D6EEFF" mask="url(#mask-2)" points="153.019919 395.956537 131.064501 395.956537 140.130777 363.408668 162.085494 363.408668"></polygon>
                    <polygon id="Fill-60" fill="#D6EEFF" mask="url(#mask-2)" points="700.127652 168.603054 910.849278 168.603054 910.849278 152.52299 700.127652 152.52299"></polygon>
                    <polygon id="Fill-61" fill="#C3E4FF" mask="url(#mask-2)" points="910.849278 168.603054 945.514695 168.603054 945.514695 152.52299 910.849278 152.52299"></polygon>
                    <polygon id="Fill-62" fill="#D6EEFF" mask="url(#mask-2)" points="803.909774 152.52299 816.899684 152.52299 816.899684 101.77158 803.909774 101.77158"></polygon>
                    <polygon id="Fill-63" fill="#C3E4FF" mask="url(#mask-2)" points="790.919165 152.52299 803.909774 152.52299 803.909774 101.77158 790.919165 101.77158"></polygon>
                    <polygon id="Fill-64" fill="#C3E4FF" mask="url(#mask-2)" points="816.899684 152.52299 829.890293 152.52299 829.890293 101.77158 816.899684 101.77158"></polygon>
                    <path d="M863.838512,152.52334 L829.890363,152.52334 L829.890363,101.77193 L863.838512,101.77193 C865.820273,101.77193 867.426955,103.378887 867.426955,105.361686 L867.426955,148.934284 C867.426955,150.916384 865.820273,152.52334 863.838512,152.52334" id="Fill-65" fill="#AAD5FF" mask="url(#mask-2)"></path>
                    <polygon id="Fill-66" fill="#C3E4FF" mask="url(#mask-2)" points="835.453499 114.190498 861.865079 114.190498 861.865079 109.16596 835.453499 109.16596"></polygon>
                    <polygon id="Fill-67" fill="#C3E4FF" mask="url(#mask-2)" points="841.3386 121.943924 855.979977 121.943924 855.979977 116.918685 841.3386 116.918685"></polygon>
                    <polygon id="Fill-68" fill="#AAD5FF" mask="url(#mask-2)" points="759.321348 168.603124 774.106178 195.593835 774.106178 168.603124"></polygon>
                    <polygon id="Fill-69" fill="#C3E4FF" mask="url(#mask-2)" points="751.139307 168.603124 765.924138 195.593835 774.105898 195.593835 759.321068 168.603124"></polygon>
                    <polygon id="Fill-70" fill="#AAD5FF" mask="url(#mask-2)" points="857.989519 168.603124 872.77435 195.593835 872.77435 168.603124"></polygon>
                    <polygon id="Fill-71" fill="#C3E4FF" mask="url(#mask-2)" points="849.807479 168.603124 864.592309 195.593835 872.77407 195.593835 857.989239 168.603124"></polygon>
                    <polygon id="Fill-72" fill="#D6EEFF" mask="url(#mask-2)" points="1042.79661 206.065578 1120.74097 206.065578 1120.74097 103.988844 1042.79661 103.988844"></polygon>
                    <polygon id="Fill-73" fill="#AAD5FF" mask="url(#mask-2)" points="1057.18537 187.222333 1106.35291 187.222333 1106.35291 122.832089 1057.18537 122.832089"></polygon>
                    <polygon id="Fill-74" fill="#AAD5FF" mask="url(#mask-2)" points="1120.74097 206.065578 1126.76953 206.065578 1126.76953 103.988844 1120.74097 103.988844"></polygon>
                    <polygon id="Fill-75" fill="#D6EEFF" mask="url(#mask-2)" points="949.28298 101.256458 988.142144 101.256458 988.142144 50.3657688 949.28298 50.3657688"></polygon>
                    <polygon id="Fill-76" fill="#AAD5FF" mask="url(#mask-2)" points="958.070745 87.2620785 979.354379 87.2620785 979.354379 64.3601485 958.070745 64.3601485"></polygon>
                    <polygon id="Fill-77" fill="#AAD5FF" mask="url(#mask-2)" points="988.142144 101.256458 999.236366 101.256458 999.236366 50.3657688 988.142144 50.3657688"></polygon>
                    <polygon id="Fill-78" fill="#C3E4FF" mask="url(#mask-2)" points="761.761041 152.794689 736.861673 152.794689 749.311357 131.690087"></polygon>
                    <path d="M828.105589,367.677531 L828.105589,367.677531 C828.105589,372.940034 823.839765,377.205888 818.578862,377.205888 L743.173986,377.205888 L743.173986,358.148475 L818.578862,358.148475 C823.839765,358.148475 828.105589,362.415029 828.105589,367.677531" id="Fill-79" fill="#C3E4FF" mask="url(#mask-2)"></path>
                    <path d="M776.695483,367.677531 L776.695483,367.677531 C776.695483,370.72417 774.226679,373.194095 771.179862,373.194095 L743.288959,373.194095 C743.22528,373.194095 743.174196,373.143003 743.174196,373.079313 L743.174196,362.27575 C743.174196,362.212059 743.22528,362.160967 743.288959,362.160967 L771.179862,362.160967 C774.226679,362.160967 776.695483,364.630893 776.695483,367.677531" id="Fill-80" fill="#D6EEFF" mask="url(#mask-2)"></path>
                    <path d="M838.773788,377.206028 L838.773788,396.26344 L756.375368,396.26344 C751.113765,396.26344 746.848641,391.997586 746.848641,386.735084 C746.848641,381.472581 751.113765,377.206028 756.375368,377.206028 L838.773788,377.206028 Z" id="Fill-81" fill="#C3E4FF" mask="url(#mask-2)"></path>
                    <path d="M838.773788,381.271432 L838.773788,392.198176 L805.062163,392.198176 C802.045436,392.198176 799.600424,389.752047 799.600424,386.734804 C799.600424,383.717561 802.045436,381.271432 805.062163,381.271432 L838.773788,381.271432 Z" id="Fill-82" fill="#D6EEFF" mask="url(#mask-2)"></path>
                    <line x1="1069.16418" y1="261.670893" x2="1069.16418" y2="552.293459" id="Stroke-83" stroke="#C3E4FF" stroke-width="16.8" mask="url(#mask-2)"></line>
                    <line x1="906.206275" y1="261.670893" x2="906.206275" y2="552.293459" id="Stroke-84" stroke="#C3E4FF" stroke-width="16.8" mask="url(#mask-2)"></line>
                    <path d="M1051.56185,485.852246 L908.162005,485.852246 L908.162005,355.456403 C908.162005,313.770019 941.949905,279.976339 983.62986,279.976339 C1021.14756,279.976339 1051.56185,310.39513 1051.56185,347.919245 L1051.56185,485.852246 Z" id="Fill-85" fill="#D6EEFF" mask="url(#mask-2)"></path>
                    <line x1="889.752763" y1="261.670893" x2="889.752763" y2="552.293459" id="Stroke-86" stroke="#D6EEFF" stroke-width="16.8" mask="url(#mask-2)"></line>
                    <line x1="1052.9614" y1="261.670893" x2="1052.9614" y2="552.293459" id="Stroke-87" stroke="#D6EEFF" stroke-width="16.8" mask="url(#mask-2)"></line>
                    <path d="M1033.25568,400.142252 L873.491619,400.142252 C864.21681,400.142252 856.697036,392.621892 856.697036,383.344797 C856.697036,374.067703 864.21681,366.547343 873.491619,366.547343 L1033.25568,366.547343 C1042.53119,366.547343 1050.05026,374.067703 1050.05026,383.344797 C1050.05026,392.621892 1042.53119,400.142252 1033.25568,400.142252" id="Fill-88" fill="#E8F6FF" mask="url(#mask-2)"></path>
                    <path d="M1033.25568,400.142252 L953.302273,400.142252 C944.026765,400.142252 936.507691,392.621892 936.507691,383.344797 C936.507691,374.067703 944.026765,366.547343 953.302273,366.547343 L1033.25568,366.547343 C1042.53119,366.547343 1050.05026,374.067703 1050.05026,383.344797 C1050.05026,392.621892 1042.53119,400.142252 1033.25568,400.142252" id="Fill-89" fill="#DEF1FF" mask="url(#mask-2)"></path>
                    <polygon id="Fill-90" fill="#AAD5FF" mask="url(#mask-2)" points="714.087449 485.852386 878.2293 485.852386 878.2293 396.26666 714.087449 396.26666"></polygon>
                    <line x1="722.125336" y1="261.670893" x2="722.125336" y2="552.293459" id="Stroke-91" stroke="#C3E4FF" stroke-width="16.8" mask="url(#mask-2)"></line>
                    <line x1="559.167783" y1="261.670893" x2="559.167783" y2="552.293459" id="Stroke-92" stroke="#C3E4FF" stroke-width="16.8" mask="url(#mask-2)"></line>
                    <path d="M704.523704,485.852246 L561.123862,485.852246 L561.123862,355.456403 C561.123862,313.770019 594.911063,279.976339 636.591718,279.976339 C674.109415,279.976339 704.523704,310.39513 704.523704,347.919245 L704.523704,485.852246 Z" id="Fill-93" fill="#D6EEFF" mask="url(#mask-2)"></path>
                    <path d="M950.144472,500.496757 L888.133275,500.496757 C876.479235,500.496757 867.032282,491.047489 867.032282,479.392155 L867.032282,396.26645 L971.244765,396.26645 L971.244765,479.392155 C971.244765,491.047489 961.797813,500.496757 950.144472,500.496757" id="Fill-94" fill="#C3E4FF" mask="url(#mask-2)"></path>
                    <line x1="542.713921" y1="261.670893" x2="542.713921" y2="552.293459" id="Stroke-95" stroke="#D6EEFF" stroke-width="16.8" mask="url(#mask-2)"></line>
                    <line x1="705.923253" y1="261.670893" x2="705.923253" y2="552.293459" id="Stroke-96" stroke="#D6EEFF" stroke-width="16.8" mask="url(#mask-2)"></line>
                    <polygon id="Fill-97" fill="#AAD5FF" mask="url(#mask-2)" points="971.244695 485.852386 1052.41851 485.852386 1052.41851 400.142672 971.244695 400.142672"></polygon>
                    <path d="M803.981851,336.506284 C808.249074,343.676698 805.895734,352.949593 798.725847,357.216846 C791.556659,361.4841 782.28605,359.130356 778.019526,351.959943 C773.753002,344.789529 776.105643,335.517334 783.274831,331.250081 C790.444018,326.982827 799.715327,329.335871 803.981851,336.506284" id="Fill-98" fill="#C3E4FF" mask="url(#mask-2)"></path>
                    <path d="M790.722388,324.159665 C789.026135,329.136611 783.595887,331.788509 783.595887,331.788509 C783.595887,331.788509 780.914352,326.37203 782.610605,321.394384 C784.306158,316.417438 789.737106,313.76554 789.737106,313.76554 C789.737106,313.76554 792.417941,319.182719 790.722388,324.159665" id="Fill-99" fill="#C3E4FF" mask="url(#mask-2)"></path>
                    <path d="M1160.72257,393.933073 C1160.72257,410.362384 1151.43587,423.680666 1139.97986,423.680666 C1128.52456,423.680666 1119.23856,410.362384 1119.23856,393.933073 C1119.23856,377.503762 1128.52456,364.18618 1139.97986,364.18618 C1151.43587,364.18618 1160.72257,377.503762 1160.72257,393.933073" id="Fill-100" fill="#C3E4FF" mask="url(#mask-2)"></path>
                    <polygon id="Fill-101" fill="#D6EEFF" mask="url(#mask-2)" points="1173.73124 371.478725 1106.22961 371.478725 1118.37279 302.372596 1161.58805 302.372596"></polygon>
                    <polygon id="Fill-102" fill="#C3E4FF" mask="url(#mask-2)" points="1023.34009 545.936182 1126.27199 545.936182 1126.27199 533.158218 1023.34009 533.158218"></polygon>
                    <polygon id="Fill-103" fill="#AAD5FF" mask="url(#mask-2)" points="1126.27129 547.909183 1189.93325 547.909183 1189.93325 535.131919 1126.27129 535.131919"></polygon>
                    <polygon id="Fill-104" fill="#D6EEFF" mask="url(#mask-2)" points="1013.23115 538.182757 1119.59684 538.182757 1119.59684 413.498049 1013.23115 413.498049"></polygon>
                    <polygon id="Fill-105" fill="#AAD5FF" mask="url(#mask-2)" points="1119.59754 538.182757 1201.84761 538.182757 1201.84761 413.498049 1119.59754 413.498049"></polygon>
                    <polygon id="Fill-106" fill="#C3E4FF" mask="url(#mask-2)" points="1023.34009 460.440636 1108.80702 460.440636 1108.80702 424.368802 1023.34009 424.368802"></polygon>
                    <polygon id="Fill-107" fill="#C3E4FF" mask="url(#mask-2)" points="1023.34009 525.548971 1108.80702 525.548971 1108.80702 469.377582 1023.34009 469.377582"></polygon>
                    <path d="M1091.71349,431.368511 L1040.43334,431.368511 C1036.56848,431.368511 1033.43559,428.234386 1033.43559,424.368872 L1098.71194,424.368872 C1098.71194,428.234386 1095.57835,431.368511 1091.71349,431.368511" id="Fill-108" fill="#AAD5FF" mask="url(#mask-2)"></path>
                    <path d="M1091.71349,476.377082 L1040.43334,476.377082 C1036.56848,476.377082 1033.43559,473.242957 1033.43559,469.377442 L1098.71194,469.377442 C1098.71194,473.242957 1095.57835,476.377082 1091.71349,476.377082" id="Fill-109" fill="#AAD5FF" mask="url(#mask-2)"></path>
                    <g id="Group-112" mask="url(#mask-2)">
                        <g transform="translate(6.997743, 551.516437)">
                            <line x1="1225.57401" y1="0.777232238" x2="-0.000139954853" y2="0.777232238" id="Fill-110" stroke="none" fill="#E8F6FF" fill-rule="evenodd"></line>
                            <line x1="1225.57401" y1="0.777232238" x2="-0.000139954853" y2="0.777232238" id="Stroke-111" stroke="#D6EEFF" stroke-width="14" fill="none" stroke-linecap="round"></line>
                        </g>
                    </g>
                    <polygon id="Fill-1" fill="#D6EEFF" mask="url(#mask-2)" points="363.074169 309.512844 396.896359 309.512844 393.325411 337.080967 366.645117 337.080967"></polygon>
                </g>
                <g id="Girl" transform="translate(149.000000, 146.035695)">
                    <path d="M0.0276365688,510.769919 C0.0276365688,512.166908 195.993122,513.300036 437.728043,513.300036 C679.462964,513.300036 875.427749,512.166908 875.427749,510.769919 C875.427749,509.372231 679.462964,508.239803 437.728043,508.239803 C195.993122,508.239803 0.0276365688,509.372231 0.0276365688,510.769919" id="Fill-114" fill="#AFB3C1"></path>
                    <polygon id="Fill-116" fill="#FFC100" points="641.917135 510.109639 625.840521 510.109639 586.760228 162.294539 602.836142 162.294539"></polygon>
                    <polygon id="Fill-118" fill="#FFC100" points="487.145402 510.109639 503.222016 510.109639 542.302309 162.294539 526.226395 162.294539"></polygon>
                    <polygon id="Fill-120" fill="#FF9A00" points="496.2643 510.109639 512.340914 510.109639 551.421208 162.294539 535.345293 162.294539"></polygon>
                    <polygon id="Fill-122" fill="#FFC100" points="622.096589 303.72708 527.970652 303.285446 530.45765 281.1548 622.096589 281.330473"></polygon>
                    <polygon id="Fill-124" fill="#FF9A00" points="651.036034 510.109639 634.95942 510.109639 595.879126 162.294539 611.955041 162.294539"></polygon>
                    <polygon id="Fill-126" fill="#FF9A00" points="545.791804 212.408346 544.313181 225.517359 519.119208 225.517359 520.597831 212.408346"></polygon>
                    <polygon id="Fill-128" fill="#FF9A00" points="619.062368 225.517359 593.867695 225.517359 592.389772 212.408346 617.583745 212.408346"></polygon>
                    <polygon id="Fill-130" fill="#FFC100" points="435.285621 212.405896 692.602415 212.405896 692.602415 0.350625663 435.285621 0.350625663"></polygon>
                    <polygon id="Fill-132" fill="#353543" points="445.297291 202.898537 682.592144 202.898537 682.592144 9.85728526 445.297291 9.85728526"></polygon>
                    <polygon id="Fill-133" fill="#FF9A00" points="692.603115 212.405896 702.895395 212.405896 702.895395 0.350625663 692.603115 0.350625663"></polygon>
                    <polygon id="Fill-134" fill="#FF9A00" points="445.297291 202.898537 450.501512 202.898537 450.501512 9.85728526 445.297291 9.85728526"></polygon>
                    <polygon id="Fill-135" fill="#FFFFFF" points="654.476194 202.898607 654.476194 196.397992 629.320009 196.397992 623.022041 199.648299 629.320009 202.898607"></polygon>
                    <polygon id="Fill-136" fill="#5E5E6C" points="551.932393 202.899236 592.394041 202.899236 592.394041 189.01894 551.932393 189.01894"></polygon>
                    <polygon id="Fill-137" fill="#4C4C5B" points="592.394041 202.899236 602.801084 202.899236 602.801084 189.01894 592.394041 189.01894"></polygon>
                    <polygon id="Stroke-138" stroke="#FFFFFF" stroke-width="4.9" stroke-linejoin="round" points="601.223652 82.8733022 574.630131 100.372051 548.037309 82.8733022 574.630131 65.3745536"></polygon>
                    <polygon id="Stroke-139" stroke="#FFFFFF" stroke-width="4.9" stroke-linejoin="round" points="601.223652 131.282168 574.630131 148.780916 548.037309 131.282168 574.630131 113.783419"></polygon>
                    <line x1="548.037379" y1="82.8733022" x2="548.037379" y2="131.282168" id="Stroke-140" stroke="#FFFFFF" stroke-width="4.9" stroke-linejoin="round"></line>
                    <line x1="601.223652" y1="82.8733022" x2="601.223652" y2="131.282168" id="Stroke-141" stroke="#FFFFFF" stroke-width="4.9" stroke-linejoin="round"></line>
                    <line x1="574.630131" y1="100.372331" x2="574.630131" y2="148.781196" id="Stroke-142" stroke="#FFFFFF" stroke-width="4.9" stroke-linejoin="round"></line>
                    <line x1="466.945578" y1="29.2610053" x2="527.422169" y2="29.2610053" id="Stroke-143" stroke="#FFFFFF" stroke-width="4.9" stroke-linejoin="round"></line>
                    <line x1="466.945578" y1="40.4593086" x2="527.422169" y2="40.4593086" id="Stroke-144" stroke="#FFFFFF" stroke-width="4.9" stroke-linejoin="round"></line>
                    <line x1="466.945578" y1="51.6576119" x2="509.622711" y2="51.6576119" id="Stroke-145" stroke="#FFFFFF" stroke-width="4.9" stroke-linejoin="round"></line>
                    <line x1="610.56123" y1="54.1759003" x2="656.611975" y2="54.1759003" id="Stroke-146" stroke="#FFFFFF" stroke-width="4.9" stroke-linejoin="round"></line>
                    <line x1="610.56123" y1="65.3742036" x2="643.057348" y2="65.3742036" id="Stroke-147" stroke="#FFFFFF" stroke-width="4.9" stroke-linejoin="round"></line>
                    <line x1="488.284564" y1="148.781196" x2="534.335309" y2="148.781196" id="Stroke-148" stroke="#FFFFFF" stroke-width="4.9" stroke-linejoin="round"></line>
                    <line x1="488.284564" y1="159.979499" x2="520.781381" y2="159.979499" id="Stroke-149" stroke="#FFFFFF" stroke-width="4.9" stroke-linejoin="round"></line>
                    <polyline id="Stroke-150" stroke="#FFFFFF" stroke-width="4.9" points="466.945578 63.9867338 523.196932 63.9867338 535.927226 75.4006045"></polyline>
                    <polygon id="Fill-151" fill="#5E5E6C" points="176.691738 510.109989 189.383544 510.109989 189.383544 295.922142 176.691738 295.922142"></polygon>
                    <polygon id="Fill-152" fill="#353543" points="163.999932 510.109989 176.691738 510.109989 176.691738 295.922142 163.999932 295.922142"></polygon>
                    <polygon id="Fill-153" fill="#353543" points="276.372483 510.109989 289.064289 510.109989 289.064289 276.968314 276.372483 276.968314"></polygon>
                    <polygon id="Fill-154" fill="#353543" points="263.680677 510.109989 276.372483 510.109989 276.372483 276.968314 263.680677 276.968314"></polygon>
                    <polygon id="Fill-155" fill="#353543" points="176.307562 328.707975 276.372483 328.707975 276.372483 277.025705 176.307562 277.025705"></polygon>
                    <polygon id="Fill-156" fill="#353543" points="163.615756 297.697073 289.064289 297.697073 289.064289 276.967614 163.615756 276.967614"></polygon>
                    <polygon id="Fill-157" fill="#F38C01" points="183.415309 358.383058 174.60865 358.383058 136.911111 510.109569 145.71777 510.109569"></polygon>
                    <polygon id="Fill-158" fill="#25003F" points="162.849223 117.623597 164.38033 204.206078 263.692293 202.423449 262.161887 115.841667"></polygon>
                    <polygon id="Fill-159" fill="#8F8F9D" points="370.459722 188.789654 455.580264 188.789654 435.608007 254.646876 350.486765 254.646876"></polygon>
                    <polygon id="Fill-160" fill="#FFFFFF" points="449.588517 193.025902 432.537117 249.257483 356.364589 249.257483 373.415289 193.025902"></polygon>
                    <polygon id="Fill-161" fill="#3F3F51" points="439.142497 199.37933 438.330059 202.068322 375.803828 202.068322 376.615567 199.37933"></polygon>
                    <polygon id="Fill-162" fill="#3F3F51" points="430.821411 204.85649 430.009673 207.544783 374.306242 207.544783 375.11798 204.85649"></polygon>
                    <polygon id="Fill-163" fill="#3F3F51" points="435.685332 210.3333 434.872894 213.021593 372.346664 213.021593 373.158402 210.3333"></polygon>
                    <polygon id="Fill-164" fill="#3F3F51" points="431.696479 215.81011 430.884041 218.499103 370.40465 218.499103 371.216388 215.81011"></polygon>
                    <polygon id="Fill-165" fill="#3F3F51" points="412.749251 221.28692 411.936813 223.975913 368.51512 223.975913 369.327558 221.28692"></polygon>
                    <polygon id="Fill-166" fill="#8F8F9D" points="288.245553 260.062375 373.366095 260.062375 373.366095 254.646596 288.245553 254.646596"></polygon>
                    <polygon id="Fill-167" fill="#BFBFD0" points="373.366095 260.062375 435.577427 260.062375 435.577427 254.646596 373.366095 254.646596"></polygon>
                    <polygon id="Fill-168" fill="#BFBFD0" points="455.510007 188.789654 460.740819 188.789654 440.768562 254.646876 435.537749 254.646876"></polygon>
                    <path d="M266.239122,113.294403 C266.747158,142.053046 244.014291,165.78155 215.464901,166.293173 C186.91481,166.804095 163.359009,143.904965 162.851673,115.146322 C162.343637,86.3876797 185.076503,62.6598749 213.625894,62.1482524 C242.175984,61.6366299 265.731086,84.5357603 266.239122,113.294403" id="Fill-169" fill="#25003F"></path>
                    <path d="M203.123122,149.409001 L199.475898,170.019478 L197.904205,170.616488 C197.904205,170.616488 204.694115,191.565714 219.77635,187.749892 C230.426214,185.056 225.585176,178.610677 225.585176,178.610677 L222.898743,176.296127 L224.942084,155.582766" id="Fill-170" fill="#FF77CA"></path>
                    <path d="M152.432524,54.5973065 C152.705436,70.037667 165.351756,82.3313043 180.679612,82.0569459 C196.008167,81.7825875 208.21223,69.0431177 207.940018,53.6027572 C207.667806,38.1623966 195.020786,25.8687593 179.69293,26.1431177 C164.364375,26.4174761 152.159612,39.1569459 152.432524,54.5973065" id="Fill-171" fill="#25003F"></path>
                    <path d="M202.840903,140.317519 C205.730271,144.802439 204.673612,150.792131 203.125011,154.306299 C202.60158,155.514316 199.239165,165.622185 198.732528,166.085514 C196.762664,167.884242 221.397517,178.222375 221.397517,178.222375 L222.694898,157.909353 C229.792709,158.205408 238.108826,157.690986 242.630068,154.554761 C256.097923,145.208378 256.392528,113.564772 256.144108,111.986511 L244.516659,99.3058324 C244.516659,99.3058324 227.167156,91.5783033 224.601084,95.0245811 C219.908397,101.337625 209.14167,129.41527 200.969007,126.365133 C200.969007,126.365133 201.852122,117.675949 194.66684,117.80403 C189.312167,117.900615 187.932212,122.250456 187.976298,124.749077 C188.12535,133.184899 198.959955,134.276034 202.840903,140.317519" id="Fill-172" fill="#FF77CA"></path>
                    <polygon id="Fill-173" fill="#285FD7" points="254.550722 129.902537 256.546479 143.308305 250.795034 141.755941"></polygon>
                    <path d="M250.040817,130.055603 C249.384429,132.475137 247.540524,134.073695 245.922646,133.627162 C244.304767,133.17993 243.525919,130.856982 244.182307,128.437449 C244.838695,126.018615 246.6826,124.419357 248.299779,124.86589 C249.917657,125.313122 250.697205,127.63607 250.040817,130.055603" id="Fill-174" fill="#0B096F"></path>
                    <path d="M238.546465,95.8482863 C238.596149,98.6639597 239.217549,101.362051 240.314095,103.853673 C240.458948,104.163027 240.604501,104.485678 240.771747,104.795031 C241.824208,106.879315 243.21186,108.804723 244.875223,110.514564 C249.363576,115.118467 255.877074,118.175603 263.20651,118.688626 C263.582289,118.713122 263.95037,118.732719 264.325449,118.738318 L264.174298,110.168817 L264.1673,110.168817 C264.170099,109.901457 264.165201,109.640397 264.160302,109.372337 C263.973463,98.7955398 259.572582,89.1489014 252.354411,81.6110435 C251.012944,80.2077561 249.569309,78.8821569 248.039603,77.6349459 C244.655494,80.148965 241.997752,83.3705769 240.362379,87.033122 C239.137774,89.7634083 238.491883,92.7386575 238.546465,95.8482863" id="Fill-175" fill="#25003F"></path>
                    <path d="M200.491481,99.275667 C200.624438,106.800927 207.496221,113.022284 216.766131,114.801415 C217.500194,114.946993 218.246853,115.060375 219.011707,115.142263 C220.239111,115.286441 221.504302,115.343832 222.786989,115.320736 C234.940668,115.103069 244.662632,107.568011 244.502384,98.4875864 C244.486989,97.6141188 244.382023,96.7581485 244.187485,95.9280742 C242.400262,88.0913616 233.192632,82.2374486 222.206176,82.4348187 C210.167959,82.650386 200.520871,90.0482651 200.49288,99.0132068 C200.488682,99.1006935 200.490081,99.1881803 200.491481,99.275667" id="Fill-176" fill="#25003F"></path>
                    <path d="M245.869183,146.137487 C245.869183,146.137487 241.967242,146.747094 242.030221,140.782598" id="Stroke-177" stroke="#0C245F" stroke-width="2.1"></path>
                    <path d="M224.692124,158.605398 C224.692124,158.605398 211.771492,157.827116 208.0277,155.584655 L224.000047,164.534899 L224.692124,158.605398 Z" id="Fill-178" fill="#EF3C86"></path>
                    <path d="M305.631515,256.33593 L305.431379,242.125983 L244.817632,236.368655 L218.963772,195.372367 L196.366661,217.204859 C196.366661,217.204859 222.727858,252.419323 233.257361,256.744668 C251.684517,264.314721 305.631515,256.33593 305.631515,256.33593" id="Fill-179" fill="#EF3C86"></path>
                    <path d="M340.512603,256.33593 L340.312467,242.125983 L279.69872,236.368655 L253.84486,195.372367 L231.247749,217.204859 C231.247749,217.204859 257.608246,252.419323 268.138449,256.744668 C286.565605,264.314721 340.512603,256.33593 340.512603,256.33593" id="Fill-180" fill="#FF77CA"></path>
                    <path d="M288.204126,467.684098 L284.867603,489.624373 C284.867603,489.624373 298.369047,495.074448 316.579273,510.109569 L260.811463,510.109569 L267.413133,463.094893 L288.204126,467.684098 Z" id="Fill-181" fill="#0B096F"></path>
                    <polygon id="Fill-182" fill="#EF3C86" points="261.282621 462.313181 263.738129 488.049682 286.967135 489.443871 284.996571 469.923828"></polygon>
                    <polyline id="Fill-183" fill="#07070A" points="238.507488 341.470751 256.629542 478.815841 293.035998 478.815841 290.183018 301.380125"></polyline>
                    <line x1="219.099738" y1="433.534172" x2="239.953711" y2="359.923525" id="Stroke-184" stroke="#000000" stroke-width="4.9"></line>
                    <line x1="202.781422" y1="359.923665" x2="257.119594" y2="433.329243" id="Stroke-185" stroke="#000000" stroke-width="4.9"></line>
                    <g id="Group-188" transform="translate(124.611738, 359.323436)">
                        <line x1="78.169684" y1="0.600229056" x2="0.244221219" y2="73.1855313" id="Fill-186" fill="#FFFFFF"></line>
                        <line x1="78.169684" y1="0.600229056" x2="0.244221219" y2="73.1855313" id="Stroke-187" stroke="#000000" stroke-width="4.9"></line>
                    </g>
                    <polygon id="Fill-189" fill="#F38C01" points="235.359203 358.292142 244.039203 358.292142 281.194418 510.109639 272.513718 510.109639"></polygon>
                    <line x1="141.90554" y1="359.923665" x2="219.099738" y2="432.508967" id="Stroke-190" stroke="#000000" stroke-width="4.9"></line>
                    <polygon id="Fill-191" fill="#FFC100" points="146.228535 358.383058 137.421876 358.383058 99.7236366 510.109569 108.530995 510.109569"></polygon>
                    <polygon id="Fill-192" fill="#FFC100" points="198.232889 358.383058 207.039549 358.383058 244.737788 510.109569 235.930429 510.109569"></polygon>
                    <path d="M220.814325,427.719033 C221.308366,429.776021 220.887102,431.76372 219.873828,432.15776 C218.861255,432.551101 217.639449,431.202405 217.146108,429.144017 C216.652068,427.087029 217.073332,425.09933 218.086605,424.70529 C219.099178,424.311949 220.320284,425.661345 220.814325,427.719033" id="Fill-193" fill="#121216"></path>
                    <path d="M205.589056,364.678674 C206.083097,366.736363 205.661833,368.724062 204.64856,369.118102 C203.635986,369.511442 202.414181,368.162747 201.92084,366.104358 C201.426799,364.04667 201.848063,362.059671 202.861336,361.665631 C203.87391,361.272291 205.095016,362.621686 205.589056,364.678674" id="Fill-194" fill="#121216"></path>
                    <path d="M258.483524,423.568172 C258.977564,425.62586 259.130815,427.389593 258.827113,427.507875 C258.523411,427.626157 257.87612,426.053495 257.382779,423.995807 C256.888738,421.938119 256.734788,420.173686 257.03919,420.055404 C257.342892,419.937822 257.989483,421.510484 258.483524,423.568172" id="Fill-195" fill="#121216"></path>
                    <path d="M244.447381,365.062146 C244.941422,367.119835 245.094673,368.884267 244.790971,369.002549 C244.487269,369.120831 243.839977,367.54817 243.346637,365.489782 C242.853296,363.432793 242.699345,361.668361 243.003047,361.550078 C243.307449,361.431796 243.953341,363.005158 244.447381,365.062146" id="Fill-196" fill="#121216"></path>
                    <path d="M123.962208,426.498978 C123.508754,428.572064 122.897151,430.165022 122.596948,430.059338 C122.296045,429.952954 122.419905,428.185722 122.874059,426.112636 C123.327512,424.04025 123.939115,422.446592 124.239318,422.552976 C124.540221,422.660059 124.415661,424.425892 123.962208,426.498978" id="Fill-197" fill="#121216"></path>
                    <path d="M138.440817,365.044999 C137.987363,367.117385 137.375761,368.711043 137.074858,368.60466 C136.774655,368.498276 136.898515,366.731743 137.351968,364.658657 C137.806122,362.586271 138.417025,360.992613 138.717928,361.098997 C139.018831,361.206081 138.894271,362.971913 138.440817,365.044999" id="Fill-198" fill="#121216"></path>
                    <polygon id="Fill-199" fill="#353543" points="184.223409 276.967614 441.540203 276.967614 441.540203 260.062375 184.223409 260.062375"></polygon>
                    <path d="M135.626325,360.184725 L262.240682,360.184725 C271.931856,360.184725 279.787521,352.326316 279.787521,342.634185 L279.787521,341.470961 L135.626325,341.470961 L135.626325,360.184725 Z" id="Fill-200" fill="#525260"></path>
                    <path d="M352.33221,467.503595 L348.996386,489.443871 C348.996386,489.443871 380.691262,495.074517 398.901488,510.109639 L324.939546,509.929067 L331.541217,462.91439 L352.33221,467.503595 Z" id="Fill-201" fill="#0B096F"></path>
                    <polygon id="Fill-202" fill="#EF3C86" points="325.411054 462.313181 327.866562 488.049682 351.095569 489.443871 349.124305 469.923828"></polygon>
                    <path d="M303.335415,341.470751 L321.45747,478.815841 L357.863926,478.815841 L351.821375,318.491832 C351.643632,307.456604 342.743903,297.511111 330.91072,296.06863 L174.595844,279.380358 L174.595844,341.470751 L303.335415,341.470751 Z" id="Fill-203" fill="#13131E"></path>
                    <path d="M154.404068,286.811413 L227.760005,285.927446 C227.760005,285.927446 227.436709,273.255166 234.792036,249.86891 C237.72409,240.546322 237.146777,235.024159 237.146777,235.024159 L249.129711,251.351285 L274.842217,214.62715 C253.8133,187.114318 246.323616,180.439429 231.247679,172.470437 C223.147792,168.188486 212.749147,163.035166 194.349982,166.565432 C184.813458,168.394954 163.650885,181.534764 162.790163,210.075039 C162.123278,232.169292 154.404068,286.811413 154.404068,286.811413" id="Fill-204" fill="#FFC100"></path>
                    <path d="M185.844016,206.357413 L205.621736,206.003266 L204.607763,148.578367 L163.405054,149.316055 L164.03765,185.159024 C164.248282,197.078918 174.011533,206.56948 185.844016,206.357413" id="Fill-205" fill="#25003F"></path>
                    <path d="M123.439056,239.773919 C123.439056,249.096507 130.996619,256.655362 140.317612,256.655362 C140.779463,256.655362 141.241314,256.634365 141.689169,256.59937 C142.046054,256.571374 142.395941,256.529381 142.745828,256.473389 C150.912194,255.304566 157.189169,248.270632 157.189169,239.773919 C157.189169,231.284206 150.912194,224.250271 142.745828,223.081449 C142.395941,223.025457 142.046054,222.983463 141.689169,222.955468 C141.241314,222.920473 140.779463,222.899476 140.317612,222.899476 C130.996619,222.899476 123.439056,230.458331 123.439056,239.773919" id="Fill-206" fill="#F38C01"></path>
                    <path d="M128.316623,239.773919 C128.316623,248.263633 134.5866,255.290568 142.745968,256.473389 C150.912334,255.304566 157.189309,248.270632 157.189309,239.773919 C157.189309,231.284206 150.912334,224.250271 142.745968,223.081449 C134.5866,224.264269 128.316623,231.291205 128.316623,239.773919" id="Fill-207" fill="#FFFFFF"></path>
                    <polygon id="Fill-208" fill="#5E5E6C" points="418.286704 276.967614 543.735237 276.967614 543.735237 260.062375 418.286704 260.062375"></polygon>
                    <polygon id="Fill-209" fill="#5E5E6C" points="499.823702 510.109989 512.515508 510.109989 512.515508 276.968314 499.823702 276.968314"></polygon>
                    <polygon id="Fill-210" fill="#353543" points="487.132596 510.109989 499.824402 510.109989 499.824402 276.968314 487.132596 276.968314"></polygon>
                    <polygon id="Fill-211" fill="#5E5E6C" points="399.758781 510.109989 412.450587 510.109989 412.450587 276.968314 399.758781 276.968314"></polygon>
                    <polygon id="Fill-212" fill="#5E5E6C" points="399.758781 328.707975 499.823702 328.707975 499.823702 277.025705 399.758781 277.025705"></polygon>
                    <polygon id="Fill-213" fill="#353543" points="387.067675 510.109989 399.759481 510.109989 399.759481 276.968314 387.067675 276.968314"></polygon>
                    <polygon id="Fill-214" fill="#353543" points="387.067675 297.697073 512.516208 297.697073 512.516208 276.967614 387.067675 276.967614"></polygon>
                    <path d="M339.055673,256.413478 C339.055673,256.413478 358.454115,252.404486 368.055718,250.419586 C369.777862,250.06334 375.412445,250.162725 375.412445,250.162725 C377.092603,249.982853 380.60267,249.781283 381.066621,247.877572 C381.181384,247.405843 380.63486,246.873224 380.63486,246.873224 C380.63486,246.873224 382.833551,246.795536 383.197433,244.862428 C383.340187,244.102344 378.551632,243.186182 378.551632,243.186182 C378.551632,243.186182 381.47249,243.328261 381.081316,240.89263 C381.016937,240.492291 367.327253,237.750106 367.327253,237.750106 L369.9717,237.943277 L373.590932,238.356214 C373.590932,238.356214 375.42644,237.930679 375.677659,236.574984 C375.777027,236.036766 372.800187,235.105207 369.41398,234.55369 C364.144679,233.69562 360.228743,234.182747 356.349894,235.069512 C351.662806,236.14105 350.072919,236.093457 344.378156,238.785949 C342.029014,239.896681 338.500052,242.132142 337.001835,243.272969" id="Fill-215" fill="#FF77CA"></path>
                    <path d="M124.831817,360.184725 L166.219966,360.184725 C187.418228,360.184725 203.727867,340.720674 200.807709,318.90568 L185.294413,197.390091 C183.948047,187.329116 175.667619,179.83955 165.889673,179.83955 L125.161411,179.83955 C115.384165,179.83955 107.103736,187.329116 105.75737,197.390091 L90.2433747,318.90568 C87.3239165,340.720674 103.632856,360.184725 124.831817,360.184725" id="Fill-216" fill="#525260"></path>
                    <polygon id="Fill-217" fill="#0050D7" points="417.809668 191.990479 407.1703 193.278984 406.318675 191.940787 406.879894 190.720172 406.069555 189.748019 416.009149 188.460214 417.510165 189.356778 416.25337 190.613088"></polygon>
                    <path d="M201.147169,321.493748 C201.147169,321.493748 204.019043,341.470821 230.68954,341.470821 C257.360736,341.470821 238.760736,353.904437 238.760736,353.904437 C238.760736,353.904437 174.7027,347.443716 175.312903,347.228848 C175.921707,347.013281 186.796898,323.969972 186.796898,323.969972 L201.147169,321.493748 Z" id="Fill-218" fill="#525260"></path>
                    <path d="M830.932743,332.972918 C832.298702,338.142335 832.95649,345.939854 833.162923,350.776821 C833.258792,353.080872 831.169266,361.026768 829.131524,365.354912 C827.979695,367.806641 826.008431,370.044201 826.008431,370.044201 C826.008431,370.044201 823.312901,374.534021 822.522856,374.902865 C820.271682,375.951306 819.776941,373.721444 819.776941,373.721444 C819.776941,373.721444 817.184977,380.249355 815.900892,379.55506 C815.110847,379.119726 814.068883,377.849419 814.342494,376.209567 C816.055542,365.790246 816.114323,354.838305 813.036016,352.83031 C809.956309,350.829313 807.911569,361.80225 805.659695,364.571731 C803.481298,367.245326 796.526242,368.957966 799.07412,364.232282 C802.728341,357.44541 803.178995,354.74242 804.0943,350.289695 C805.009605,345.844668 806.257302,342.056142 806.257302,342.056142 L813.286535,327.678221 L812.895361,300.154891 L771.962065,486.2112 L713.530214,220.593046 L697.064526,234.705007 L694.155564,227.328125 L683.036151,233.545983 C675.955835,236.839684 666.622946,233.951922 660.251501,223.923841 L622.130598,163.886937 C619.982291,162.764308 617.730418,161.69347 615.205632,159.655379 C609.232359,154.840108 607.135135,150.778624 602.860214,146.495273 C597.344594,140.979408 590.338454,136.504286 588.078883,133.830691 C587.421795,133.04821 587.502968,131.896185 588.263623,131.224286 L588.691185,130.833046 C589.400756,130.21224 590.470711,130.21224 591.179582,130.840045 L606.596309,141.680702 L607.112743,140.868825 L589.348973,124.164456 C588.691185,123.367277 588.809447,122.178157 589.614187,121.528655 L590.530192,120.77487 C591.304842,120.154764 592.441975,120.235951 593.106761,120.981338 L611.912494,137.597521 L612.517799,137.013809 C612.805406,136.851434 597.72877,120.37663 593.712065,115.191815 C593.04798,114.350543 593.239718,113.124329 594.125632,112.51892 L595.336242,111.676948 C596.112291,111.13803 597.174549,111.263311 597.802946,111.972303 L618.004029,133.277075 L618.460982,132.723459 C618.741591,132.575782 608.338747,118.116672 604.979131,113.18382 C604.351433,112.267659 604.661433,111.019748 605.636219,110.488528 L606.559221,109.986004 C607.386354,109.542971 608.405226,109.764138 608.958747,110.517924 L626.161998,132.834042 C626.161998,132.834042 627.180869,133.919578 628.709876,134.754551 C630.518792,132.295124 629.735745,125.567743 631.212269,122.369928 C632.977099,118.537309 640.958725,112.961953 637.621501,121.03383 C634.283578,129.105007 637.436061,134.510288 637.983284,139.081296 C638.529108,143.652303 638.536806,147.891561 638.536806,147.891561 L638.189718,153.983438 L677.64649,200.322717 C677.64649,200.322717 679.255971,198.859938 681.973194,196.445304 L679.418318,189.976185 C679.418318,189.976185 705.629763,161.353321 720.506964,154.648337 C729.935722,150.402081 737.201479,148.075633 742.723397,147.234361 C743.579921,147.101381 744.384661,147.004795 745.160711,146.946004 C745.234187,146.754233 745.285271,146.650649 745.285271,146.650649 L748.755451,145.712791 L748.755451,145.705792 L750.52798,125.235294 C750.52798,125.235294 720.329921,127.576439 714.031253,124.304435 C714.031253,124.304435 711.012427,105.717351 712.052991,87.6026957 C712.260124,83.9030562 712.6436,80.2188144 713.248905,76.7256437 C713.928386,76.8957179 714.63026,77.0503945 715.339131,77.1833743 C728.08202,79.686895 745.84649,78.3353998 770.359582,69.9611686 C770.167844,70.4112004 762.969266,87.2632471 783.14026,90.7270223 C783.14026,90.7270223 783.147957,90.7193234 783.147957,90.6969268 C784.462133,86.9307975 792.044887,82.6033531 798.79281,82.9435016 L798.808205,82.9435016 C803.119515,83.1576691 807.092133,85.2692492 808.871659,90.6675313 C814.770756,108.538624 780.763126,117.924901 780.763126,117.924901 L782.371907,146.990098 L785.112223,147.389037 L786.728702,147.625601 C790.435406,148.208613 793.639673,148.910607 795.81737,149.774976 C819.56281,159.160554 829.8257,179.416884 834.144707,192.812155 L834.152404,192.834551 L837.090756,205.757393 L842.059153,227.55699 L837.644278,228.649525 C839.313239,235.916524 840.760372,243.249313 841.092765,248.071582 C841.868115,259.70242 832.601704,321.925792 830.932743,332.972918" id="Fill-219" fill="url(#linearGradient-3)"></path>
                </g>
                <g id="Group-223" transform="translate(891.512415, 291.191580)">
                    <mask id="mask-5" fill="white">
                        <use xlink:href="#path-4"></use>
                    </mask>
                    <g id="Clip-222"></g>
                    <path d="M0.211331828,2.07868505 C1.06715576,1.9457052 1.87259594,1.84911983 2.64794582,1.79032874 L2.64794582,1.79032874 C2.72142212,1.59855779 2.77320542,1.49497349 2.77320542,1.49497349 L2.77320542,1.49497349 L6.243386,0.557115589 L6.243386,0.549416755 C4.29451467,1.0078473 2.10911964,1.57616119 0.211331828,2.07868505" id="Fill-221" fill="url(#linearGradient-6)" mask="url(#mask-5)"></path>
                </g>
                <g id="Group-226" transform="translate(982.483070, 338.784369)">
                    <mask id="mask-8" fill="white">
                        <use xlink:href="#path-7"></use>
                    </mask>
                    <g id="Clip-225"></g>
                    <path d="M3.60733634,13.008929 L3.63742664,13.008929 C3.63742664,13.008929 3.09860045,7.64004242 0.668984199,0.0853870626 L0.668984199,0.0853870626 L3.60733634,13.008929 Z" id="Fill-224" fill="url(#linearGradient-9)" mask="url(#mask-8)"></path>
                </g>
                <g id="Man" transform="translate(830.632054, 162.411092)">
                    <path d="M117.175941,66.5679639 L117.161246,66.5679639 C110.412623,66.2285154 102.829869,70.5559597 101.515693,74.3220891 C101.515693,74.3437858 101.507995,74.3514846 101.507995,74.3514846 C81.3370023,70.8877094 88.5355801,54.0363627 88.7280181,53.585631 C64.2142257,61.9598621 46.450456,63.3113574 33.7068668,60.8085366 C32.9979955,60.6755567 32.2961219,60.5201803 31.6166411,60.350106 C31.0113363,63.8432768 30.62786,67.5282185 30.4207269,71.2278579 C23.0744966,67.6534995 21.0808397,62.092842 21.442623,56.56228 C0.510975169,45.3744751 2.09106546,20.4582503 6.09307449,18.7820042 C12.5233002,16.0867126 23.8281535,34.9397561 23.8281535,34.9397561 C23.8281535,34.9397561 27.2906366,0.276108165 49.7205011,0.180053332 C65.462623,0.106733828 71.1545869,23.9738176 71.1545869,23.9738176 C71.1545869,23.9738176 91.3269797,11.8180594 113.95628,35.2421103 C136.217499,58.2749205 117.788244,66.3020042 117.175941,66.5679639" id="Fill-227" fill="#0B096F"></path>
                    <path d="M117.160966,66.5679639 C105.502727,66.9669035 101.766632,73.8419618 101.516113,74.3220891 C102.830289,70.5559597 110.412343,66.2285154 117.160966,66.5679639" id="Fill-229" fill="#0B096F"></path>
                    <polyline id="Stroke-231" stroke="#0B096F" stroke-width="6.3" points="108.629038 16.7397837 105.817345 32.3803139 111.675856 35.1840891 122.498564 24.1544602"></polyline>
                    <path d="M47.5661761,96.5307741 C48.0350248,99.5284199 52.1517968,101.369141 57.1579819,100.58526 C62.1648668,99.8006787 65.5685688,93.8753765 62.1032867,91.4887381 C59.6050926,89.7683987 57.1061986,90.928123 53.0328126,92.1466384 C49.5927223,93.1761824 47.0966275,93.5331283 47.5661761,96.5307741" id="Fill-233" fill="#FFFFFF"></path>
                    <polygon id="Fill-235" fill="#285FD7" points="68.8949458 108.857516 88.9945621 104.597962 68.2084673 117.954738"></polygon>
                    <path d="M52.2137968,72.5265811 C51.8051287,74.7865387 53.3061445,76.9506108 55.5657156,77.3593489 C57.8259865,77.768087 59.9882889,76.2675143 60.3969571,74.0068568 C60.8063251,71.7468993 59.306009,69.5828271 57.0457381,69.1740891 C54.786167,68.765351 52.6231648,70.2666235 52.2137968,72.5265811" id="Fill-237" fill="#0B096F"></path>
                    <path d="M30.6253409,72.5265811 C30.2166727,74.7865387 31.7176885,76.9506108 33.9772596,77.3593489 C36.2375305,77.768087 38.399833,76.2675143 38.8085011,74.0068568 C39.2178691,71.7468993 37.717553,69.5828271 35.4572822,69.1740891 C33.1977111,68.765351 31.0347088,70.2666235 30.6253409,72.5265811" id="Fill-239" fill="#0B096F"></path>
                    <path d="M45.2550316,73.8122163 C45.2550316,78.7695652 41.2369278,82.7890562 36.2797269,82.7890562 C31.3232257,82.7890562 27.3051219,78.7695652 27.3051219,73.8122163 C27.3051219,68.8548674 31.3232257,64.8353765 36.2797269,64.8353765 C41.2369278,64.8353765 45.2550316,68.8548674 45.2550316,73.8122163 Z" id="Stroke-241" stroke="#26262C" stroke-width="2.1"></path>
                    <path d="M67.1735711,73.8122163 C67.1735711,78.7695652 63.1554673,82.7890562 58.1989661,82.7890562 C53.2417652,82.7890562 49.2236614,78.7695652 49.2236614,73.8122163 C49.2236614,68.8548674 53.2417652,64.8353765 58.1989661,64.8353765 C63.1554673,64.8353765 67.1735711,68.8548674 67.1735711,73.8122163 Z" id="Stroke-243" stroke="#26262C" stroke-width="2.1"></path>
                    <polygon id="Fill-245" fill="#285FD7" points="47.3536546 73.8498006 40.4895688 90.6346575 48.7161151 90.7396416"></polygon>
                    <line x1="67.4899391" y1="72.3728144" x2="102.710977" y2="72.3728144" id="Stroke-247" stroke="#26262C" stroke-width="2.1"></line>
                    <line x1="48.7163251" y1="72.3728144" x2="45.3742032" y2="72.3728144" id="Stroke-249" stroke="#26262C" stroke-width="2.1"></line>
                    <line x1="26.7909977" y1="72.3728144" x2="30.3549481" y2="72.3728144" id="Stroke-251" stroke="#26262C" stroke-width="2.1"></line>
                    <polygon id="Fill-253" fill="#285FD7" points="156.012084 212.274407 127.667727 219.363633 157.648156 219.834662"></polygon>
                    <path d="M171.543084,482.123141 L171.543084,482.123141 C171.543084,488.903714 166.047056,494.399281 159.267643,494.398581 L21.6731287,494.388783 C14.8944153,494.388783 9.39978781,488.892515 9.39978781,482.111943 C9.39978781,475.33207 14.8958149,469.835803 21.6745282,469.836503 L159.269743,469.846301 C166.047756,469.847001 171.543084,475.343268 171.543084,482.123141" id="Fill-257" fill="#6A6A76"></path>
                    <path d="M173.065652,482.123141 L173.065652,482.123141 C173.065652,488.903714 167.569625,494.399281 160.790912,494.399281 L94.9106637,494.394382 C88.1326501,494.393682 82.6373228,488.897415 82.6373228,482.117542 C82.6373228,475.337669 88.1340497,469.841402 94.912763,469.841402 L160.792312,469.846301 C167.571025,469.847001 173.065652,475.343268 173.065652,482.123141" id="Fill-259" fill="#3F3F4B"></path>
                    <path d="M108.805312,475.616997 L108.805312,475.616997 C110.108291,475.616997 111.16495,476.667538 111.16705,477.97074 C111.169849,480.320984 111.170549,483.91284 111.171248,486.264484 C111.171248,487.569086 110.113889,488.621027 108.80951,488.621027 L108.799713,488.621027 C107.495334,488.621027 106.437975,487.568386 106.437975,486.263784 C106.438675,483.91284 106.440074,480.320984 106.443573,477.97004 C106.444973,476.666838 107.502332,475.616997 108.805312,475.616997" id="Fill-261" fill="#00AEFF"></path>
                    <path d="M100.545386,475.616297 L100.545386,475.616297 C101.852564,475.616297 102.912023,476.676636 102.912023,477.984038 L102.912023,486.253285 C102.911323,487.560687 101.851865,488.620327 100.544686,488.620327 C99.2375079,488.620327 98.1780497,487.559987 98.1780497,486.253285 L98.1787494,477.983338 C98.1787494,476.676636 99.2382077,475.616297 100.545386,475.616297" id="Fill-263" fill="#00AEFF"></path>
                    <path d="M163.631716,482.123141 L163.631716,482.123141 C163.631716,483.945665 162.154492,485.423141 160.33228,485.423141 L123.344312,485.420341 C121.5214,485.420341 120.044876,483.942865 120.044876,482.119642 C120.044876,480.297818 121.522099,478.819642 123.344312,478.819642 L160.33228,478.822441 C162.155192,478.822441 163.632415,480.300617 163.631716,482.123141" id="Fill-265" fill="#6A6A76"></path>
                    <polygon id="Fill-267" fill="#285FD7" points="0.33827088 180.068647 6.69921896 214.212274 12.5234402 210.955667"></polygon>
                </g>
            </g>
        </g>
    </g>
</svg>